G04 #@! TF.GenerationSoftware,KiCad,Pcbnew,9.0.9-9.0.9~ubuntu24.04.1*
G04 #@! TF.CreationDate,2026-08-23T16:43:13-06:00*
G04 #@! TF.ProjectId,ckt-katoswitch,636b742d-6b61-4746-9f73-77697463682e,rev?*
G04 #@! TF.SameCoordinates,Original*
G04 #@! TF.FileFunction,Paste,Top*
G04 #@! TF.FilePolarity,Positive*
%FSLAX46Y46*%
G04 Gerber Fmt 4.6, Leading zero omitted, Abs format (unit mm)*
G04 Created by KiCad (PCBNEW 9.0.9-9.0.9~ubuntu24.04.1) date 2026-08-23 16:43:13*
%MOMM*%
%LPD*%
G01*
G04 APERTURE LIST*
%ADD10R,2.000000X0.640000*%
%ADD11R,1.400000X1.900000*%
%ADD12R,2.660000X0.800000*%
%ADD13R,2.400000X3.100000*%
%ADD14R,2.200000X0.500000*%
%ADD15R,0.550000X1.300000*%
G04 APERTURE END LIST*
G36*
G01*
X59916000Y-39566000D02*
X59916000Y-38666000D01*
G75*
G02*
X60166000Y-38416000I250000J0D01*
G01*
X60691000Y-38416000D01*
G75*
G02*
X60941000Y-38666000I0J-250000D01*
G01*
X60941000Y-39566000D01*
G75*
G02*
X60691000Y-39816000I-250000J0D01*
G01*
X60166000Y-39816000D01*
G75*
G02*
X59916000Y-39566000I0J250000D01*
G01*
G37*
G36*
G01*
X61741000Y-39566000D02*
X61741000Y-38666000D01*
G75*
G02*
X61991000Y-38416000I250000J0D01*
G01*
X62516000Y-38416000D01*
G75*
G02*
X62766000Y-38666000I0J-250000D01*
G01*
X62766000Y-39566000D01*
G75*
G02*
X62516000Y-39816000I-250000J0D01*
G01*
X61991000Y-39816000D01*
G75*
G02*
X61741000Y-39566000I0J250000D01*
G01*
G37*
G36*
G01*
X59371581Y-46183235D02*
X59371581Y-45233235D01*
G75*
G02*
X59621581Y-44983235I250000J0D01*
G01*
X60121581Y-44983235D01*
G75*
G02*
X60371581Y-45233235I0J-250000D01*
G01*
X60371581Y-46183235D01*
G75*
G02*
X60121581Y-46433235I-250000J0D01*
G01*
X59621581Y-46433235D01*
G75*
G02*
X59371581Y-46183235I0J250000D01*
G01*
G37*
G36*
G01*
X61271581Y-46183235D02*
X61271581Y-45233235D01*
G75*
G02*
X61521581Y-44983235I250000J0D01*
G01*
X62021581Y-44983235D01*
G75*
G02*
X62271581Y-45233235I0J-250000D01*
G01*
X62271581Y-46183235D01*
G75*
G02*
X62021581Y-46433235I-250000J0D01*
G01*
X61521581Y-46433235D01*
G75*
G02*
X61271581Y-46183235I0J250000D01*
G01*
G37*
D10*
X63221000Y-58674000D03*
X63221000Y-56134000D03*
X56921000Y-56134000D03*
X56921000Y-58674000D03*
D11*
X49912000Y-27940000D03*
X53212000Y-27940000D03*
G36*
G01*
X59396581Y-43745235D02*
X59396581Y-42845235D01*
G75*
G02*
X59646581Y-42595235I250000J0D01*
G01*
X60171581Y-42595235D01*
G75*
G02*
X60421581Y-42845235I0J-250000D01*
G01*
X60421581Y-43745235D01*
G75*
G02*
X60171581Y-43995235I-250000J0D01*
G01*
X59646581Y-43995235D01*
G75*
G02*
X59396581Y-43745235I0J250000D01*
G01*
G37*
G36*
G01*
X61221581Y-43745235D02*
X61221581Y-42845235D01*
G75*
G02*
X61471581Y-42595235I250000J0D01*
G01*
X61996581Y-42595235D01*
G75*
G02*
X62246581Y-42845235I0J-250000D01*
G01*
X62246581Y-43745235D01*
G75*
G02*
X61996581Y-43995235I-250000J0D01*
G01*
X61471581Y-43995235D01*
G75*
G02*
X61221581Y-43745235I0J250000D01*
G01*
G37*
G36*
G01*
X38222000Y-31157000D02*
X38222000Y-30057000D01*
G75*
G02*
X38472000Y-29807000I250000J0D01*
G01*
X41472000Y-29807000D01*
G75*
G02*
X41722000Y-30057000I0J-250000D01*
G01*
X41722000Y-31157000D01*
G75*
G02*
X41472000Y-31407000I-250000J0D01*
G01*
X38472000Y-31407000D01*
G75*
G02*
X38222000Y-31157000I0J250000D01*
G01*
G37*
G36*
G01*
X43622000Y-31157000D02*
X43622000Y-30057000D01*
G75*
G02*
X43872000Y-29807000I250000J0D01*
G01*
X46872000Y-29807000D01*
G75*
G02*
X47122000Y-30057000I0J-250000D01*
G01*
X47122000Y-31157000D01*
G75*
G02*
X46872000Y-31407000I-250000J0D01*
G01*
X43872000Y-31407000D01*
G75*
G02*
X43622000Y-31157000I0J250000D01*
G01*
G37*
D12*
X29044900Y-51549300D03*
X29044900Y-54749700D03*
X29044900Y-56959500D03*
X29044900Y-59169300D03*
X36233100Y-59169300D03*
X36233100Y-56959500D03*
X36233100Y-54749700D03*
X36233100Y-51549300D03*
G36*
G01*
X35969000Y-45898750D02*
X35969000Y-46811250D01*
G75*
G02*
X35725250Y-47055000I-243750J0D01*
G01*
X35237750Y-47055000D01*
G75*
G02*
X34994000Y-46811250I0J243750D01*
G01*
X34994000Y-45898750D01*
G75*
G02*
X35237750Y-45655000I243750J0D01*
G01*
X35725250Y-45655000D01*
G75*
G02*
X35969000Y-45898750I0J-243750D01*
G01*
G37*
G36*
G01*
X34094000Y-45898750D02*
X34094000Y-46811250D01*
G75*
G02*
X33850250Y-47055000I-243750J0D01*
G01*
X33362750Y-47055000D01*
G75*
G02*
X33119000Y-46811250I0J243750D01*
G01*
X33119000Y-45898750D01*
G75*
G02*
X33362750Y-45655000I243750J0D01*
G01*
X33850250Y-45655000D01*
G75*
G02*
X34094000Y-45898750I0J-243750D01*
G01*
G37*
G36*
G01*
X39571000Y-36289000D02*
X39571000Y-35339000D01*
G75*
G02*
X39821000Y-35089000I250000J0D01*
G01*
X40321000Y-35089000D01*
G75*
G02*
X40571000Y-35339000I0J-250000D01*
G01*
X40571000Y-36289000D01*
G75*
G02*
X40321000Y-36539000I-250000J0D01*
G01*
X39821000Y-36539000D01*
G75*
G02*
X39571000Y-36289000I0J250000D01*
G01*
G37*
G36*
G01*
X41471000Y-36289000D02*
X41471000Y-35339000D01*
G75*
G02*
X41721000Y-35089000I250000J0D01*
G01*
X42221000Y-35089000D01*
G75*
G02*
X42471000Y-35339000I0J-250000D01*
G01*
X42471000Y-36289000D01*
G75*
G02*
X42221000Y-36539000I-250000J0D01*
G01*
X41721000Y-36539000D01*
G75*
G02*
X41471000Y-36289000I0J250000D01*
G01*
G37*
G36*
G01*
X59371581Y-48723235D02*
X59371581Y-47773235D01*
G75*
G02*
X59621581Y-47523235I250000J0D01*
G01*
X60121581Y-47523235D01*
G75*
G02*
X60371581Y-47773235I0J-250000D01*
G01*
X60371581Y-48723235D01*
G75*
G02*
X60121581Y-48973235I-250000J0D01*
G01*
X59621581Y-48973235D01*
G75*
G02*
X59371581Y-48723235I0J250000D01*
G01*
G37*
G36*
G01*
X61271581Y-48723235D02*
X61271581Y-47773235D01*
G75*
G02*
X61521581Y-47523235I250000J0D01*
G01*
X62021581Y-47523235D01*
G75*
G02*
X62271581Y-47773235I0J-250000D01*
G01*
X62271581Y-48723235D01*
G75*
G02*
X62021581Y-48973235I-250000J0D01*
G01*
X61521581Y-48973235D01*
G75*
G02*
X61271581Y-48723235I0J250000D01*
G01*
G37*
D13*
X42578250Y-40132000D03*
D14*
X45453250Y-42037000D03*
X45453250Y-40767000D03*
X45453250Y-39497000D03*
X45453250Y-38227000D03*
X39703250Y-38227000D03*
X39703250Y-39497000D03*
X39703250Y-40767000D03*
X39703250Y-42037000D03*
G36*
G01*
X72164000Y-34849750D02*
X72164000Y-35762250D01*
G75*
G02*
X71920250Y-36006000I-243750J0D01*
G01*
X71432750Y-36006000D01*
G75*
G02*
X71189000Y-35762250I0J243750D01*
G01*
X71189000Y-34849750D01*
G75*
G02*
X71432750Y-34606000I243750J0D01*
G01*
X71920250Y-34606000D01*
G75*
G02*
X72164000Y-34849750I0J-243750D01*
G01*
G37*
G36*
G01*
X70289000Y-34849750D02*
X70289000Y-35762250D01*
G75*
G02*
X70045250Y-36006000I-243750J0D01*
G01*
X69557750Y-36006000D01*
G75*
G02*
X69314000Y-35762250I0J243750D01*
G01*
X69314000Y-34849750D01*
G75*
G02*
X69557750Y-34606000I243750J0D01*
G01*
X70045250Y-34606000D01*
G75*
G02*
X70289000Y-34849750I0J-243750D01*
G01*
G37*
D15*
X49808000Y-46481000D03*
G36*
X52233000Y-42531000D02*
G01*
X52233000Y-45131000D01*
X51708000Y-45656000D01*
X51708000Y-47131000D01*
X50908000Y-47131000D01*
X50908000Y-45656000D01*
X50383000Y-45131000D01*
X50383000Y-42531000D01*
X52233000Y-42531000D01*
G37*
X52808000Y-46481000D03*
G36*
G01*
X59396581Y-51238235D02*
X59396581Y-50338235D01*
G75*
G02*
X59646581Y-50088235I250000J0D01*
G01*
X60171581Y-50088235D01*
G75*
G02*
X60421581Y-50338235I0J-250000D01*
G01*
X60421581Y-51238235D01*
G75*
G02*
X60171581Y-51488235I-250000J0D01*
G01*
X59646581Y-51488235D01*
G75*
G02*
X59396581Y-51238235I0J250000D01*
G01*
G37*
G36*
G01*
X61221581Y-51238235D02*
X61221581Y-50338235D01*
G75*
G02*
X61471581Y-50088235I250000J0D01*
G01*
X61996581Y-50088235D01*
G75*
G02*
X62246581Y-50338235I0J-250000D01*
G01*
X62246581Y-51238235D01*
G75*
G02*
X61996581Y-51488235I-250000J0D01*
G01*
X61471581Y-51488235D01*
G75*
G02*
X61221581Y-51238235I0J250000D01*
G01*
G37*
G36*
G01*
X32032000Y-45898750D02*
X32032000Y-46811250D01*
G75*
G02*
X31788250Y-47055000I-243750J0D01*
G01*
X31300750Y-47055000D01*
G75*
G02*
X31057000Y-46811250I0J243750D01*
G01*
X31057000Y-45898750D01*
G75*
G02*
X31300750Y-45655000I243750J0D01*
G01*
X31788250Y-45655000D01*
G75*
G02*
X32032000Y-45898750I0J-243750D01*
G01*
G37*
G36*
G01*
X30157000Y-45898750D02*
X30157000Y-46811250D01*
G75*
G02*
X29913250Y-47055000I-243750J0D01*
G01*
X29425750Y-47055000D01*
G75*
G02*
X29182000Y-46811250I0J243750D01*
G01*
X29182000Y-45898750D01*
G75*
G02*
X29425750Y-45655000I243750J0D01*
G01*
X29913250Y-45655000D01*
G75*
G02*
X30157000Y-45898750I0J-243750D01*
G01*
G37*
G36*
G01*
X59408000Y-53790000D02*
X59408000Y-52890000D01*
G75*
G02*
X59658000Y-52640000I250000J0D01*
G01*
X60183000Y-52640000D01*
G75*
G02*
X60433000Y-52890000I0J-250000D01*
G01*
X60433000Y-53790000D01*
G75*
G02*
X60183000Y-54040000I-250000J0D01*
G01*
X59658000Y-54040000D01*
G75*
G02*
X59408000Y-53790000I0J250000D01*
G01*
G37*
G36*
G01*
X61233000Y-53790000D02*
X61233000Y-52890000D01*
G75*
G02*
X61483000Y-52640000I250000J0D01*
G01*
X62008000Y-52640000D01*
G75*
G02*
X62258000Y-52890000I0J-250000D01*
G01*
X62258000Y-53790000D01*
G75*
G02*
X62008000Y-54040000I-250000J0D01*
G01*
X61483000Y-54040000D01*
G75*
G02*
X61233000Y-53790000I0J250000D01*
G01*
G37*
G36*
G01*
X66369250Y-59718000D02*
X65456750Y-59718000D01*
G75*
G02*
X65213000Y-59474250I0J243750D01*
G01*
X65213000Y-58986750D01*
G75*
G02*
X65456750Y-58743000I243750J0D01*
G01*
X66369250Y-58743000D01*
G75*
G02*
X66613000Y-58986750I0J-243750D01*
G01*
X66613000Y-59474250D01*
G75*
G02*
X66369250Y-59718000I-243750J0D01*
G01*
G37*
G36*
G01*
X66369250Y-57843000D02*
X65456750Y-57843000D01*
G75*
G02*
X65213000Y-57599250I0J243750D01*
G01*
X65213000Y-57111750D01*
G75*
G02*
X65456750Y-56868000I243750J0D01*
G01*
X66369250Y-56868000D01*
G75*
G02*
X66613000Y-57111750I0J-243750D01*
G01*
X66613000Y-57599250D01*
G75*
G02*
X66369250Y-57843000I-243750J0D01*
G01*
G37*
G36*
G01*
X46461000Y-50442000D02*
X46461000Y-50142000D01*
G75*
G02*
X46611000Y-49992000I150000J0D01*
G01*
X48261000Y-49992000D01*
G75*
G02*
X48411000Y-50142000I0J-150000D01*
G01*
X48411000Y-50442000D01*
G75*
G02*
X48261000Y-50592000I-150000J0D01*
G01*
X46611000Y-50592000D01*
G75*
G02*
X46461000Y-50442000I0J150000D01*
G01*
G37*
G36*
G01*
X46461000Y-51712000D02*
X46461000Y-51412000D01*
G75*
G02*
X46611000Y-51262000I150000J0D01*
G01*
X48261000Y-51262000D01*
G75*
G02*
X48411000Y-51412000I0J-150000D01*
G01*
X48411000Y-51712000D01*
G75*
G02*
X48261000Y-51862000I-150000J0D01*
G01*
X46611000Y-51862000D01*
G75*
G02*
X46461000Y-51712000I0J150000D01*
G01*
G37*
G36*
G01*
X46461000Y-52982000D02*
X46461000Y-52682000D01*
G75*
G02*
X46611000Y-52532000I150000J0D01*
G01*
X48261000Y-52532000D01*
G75*
G02*
X48411000Y-52682000I0J-150000D01*
G01*
X48411000Y-52982000D01*
G75*
G02*
X48261000Y-53132000I-150000J0D01*
G01*
X46611000Y-53132000D01*
G75*
G02*
X46461000Y-52982000I0J150000D01*
G01*
G37*
G36*
G01*
X46461000Y-54252000D02*
X46461000Y-53952000D01*
G75*
G02*
X46611000Y-53802000I150000J0D01*
G01*
X48261000Y-53802000D01*
G75*
G02*
X48411000Y-53952000I0J-150000D01*
G01*
X48411000Y-54252000D01*
G75*
G02*
X48261000Y-54402000I-150000J0D01*
G01*
X46611000Y-54402000D01*
G75*
G02*
X46461000Y-54252000I0J150000D01*
G01*
G37*
G36*
G01*
X46461000Y-55522000D02*
X46461000Y-55222000D01*
G75*
G02*
X46611000Y-55072000I150000J0D01*
G01*
X48261000Y-55072000D01*
G75*
G02*
X48411000Y-55222000I0J-150000D01*
G01*
X48411000Y-55522000D01*
G75*
G02*
X48261000Y-55672000I-150000J0D01*
G01*
X46611000Y-55672000D01*
G75*
G02*
X46461000Y-55522000I0J150000D01*
G01*
G37*
G36*
G01*
X46461000Y-56792000D02*
X46461000Y-56492000D01*
G75*
G02*
X46611000Y-56342000I150000J0D01*
G01*
X48261000Y-56342000D01*
G75*
G02*
X48411000Y-56492000I0J-150000D01*
G01*
X48411000Y-56792000D01*
G75*
G02*
X48261000Y-56942000I-150000J0D01*
G01*
X46611000Y-56942000D01*
G75*
G02*
X46461000Y-56792000I0J150000D01*
G01*
G37*
G36*
G01*
X46461000Y-58062000D02*
X46461000Y-57762000D01*
G75*
G02*
X46611000Y-57612000I150000J0D01*
G01*
X48261000Y-57612000D01*
G75*
G02*
X48411000Y-57762000I0J-150000D01*
G01*
X48411000Y-58062000D01*
G75*
G02*
X48261000Y-58212000I-150000J0D01*
G01*
X46611000Y-58212000D01*
G75*
G02*
X46461000Y-58062000I0J150000D01*
G01*
G37*
G36*
G01*
X51411000Y-58062000D02*
X51411000Y-57762000D01*
G75*
G02*
X51561000Y-57612000I150000J0D01*
G01*
X53211000Y-57612000D01*
G75*
G02*
X53361000Y-57762000I0J-150000D01*
G01*
X53361000Y-58062000D01*
G75*
G02*
X53211000Y-58212000I-150000J0D01*
G01*
X51561000Y-58212000D01*
G75*
G02*
X51411000Y-58062000I0J150000D01*
G01*
G37*
G36*
G01*
X51411000Y-56792000D02*
X51411000Y-56492000D01*
G75*
G02*
X51561000Y-56342000I150000J0D01*
G01*
X53211000Y-56342000D01*
G75*
G02*
X53361000Y-56492000I0J-150000D01*
G01*
X53361000Y-56792000D01*
G75*
G02*
X53211000Y-56942000I-150000J0D01*
G01*
X51561000Y-56942000D01*
G75*
G02*
X51411000Y-56792000I0J150000D01*
G01*
G37*
G36*
G01*
X51411000Y-55522000D02*
X51411000Y-55222000D01*
G75*
G02*
X51561000Y-55072000I150000J0D01*
G01*
X53211000Y-55072000D01*
G75*
G02*
X53361000Y-55222000I0J-150000D01*
G01*
X53361000Y-55522000D01*
G75*
G02*
X53211000Y-55672000I-150000J0D01*
G01*
X51561000Y-55672000D01*
G75*
G02*
X51411000Y-55522000I0J150000D01*
G01*
G37*
G36*
G01*
X51411000Y-54252000D02*
X51411000Y-53952000D01*
G75*
G02*
X51561000Y-53802000I150000J0D01*
G01*
X53211000Y-53802000D01*
G75*
G02*
X53361000Y-53952000I0J-150000D01*
G01*
X53361000Y-54252000D01*
G75*
G02*
X53211000Y-54402000I-150000J0D01*
G01*
X51561000Y-54402000D01*
G75*
G02*
X51411000Y-54252000I0J150000D01*
G01*
G37*
G36*
G01*
X51411000Y-52982000D02*
X51411000Y-52682000D01*
G75*
G02*
X51561000Y-52532000I150000J0D01*
G01*
X53211000Y-52532000D01*
G75*
G02*
X53361000Y-52682000I0J-150000D01*
G01*
X53361000Y-52982000D01*
G75*
G02*
X53211000Y-53132000I-150000J0D01*
G01*
X51561000Y-53132000D01*
G75*
G02*
X51411000Y-52982000I0J150000D01*
G01*
G37*
G36*
G01*
X51411000Y-51712000D02*
X51411000Y-51412000D01*
G75*
G02*
X51561000Y-51262000I150000J0D01*
G01*
X53211000Y-51262000D01*
G75*
G02*
X53361000Y-51412000I0J-150000D01*
G01*
X53361000Y-51712000D01*
G75*
G02*
X53211000Y-51862000I-150000J0D01*
G01*
X51561000Y-51862000D01*
G75*
G02*
X51411000Y-51712000I0J150000D01*
G01*
G37*
G36*
G01*
X51411000Y-50442000D02*
X51411000Y-50142000D01*
G75*
G02*
X51561000Y-49992000I150000J0D01*
G01*
X53211000Y-49992000D01*
G75*
G02*
X53361000Y-50142000I0J-150000D01*
G01*
X53361000Y-50442000D01*
G75*
G02*
X53211000Y-50592000I-150000J0D01*
G01*
X51561000Y-50592000D01*
G75*
G02*
X51411000Y-50442000I0J150000D01*
G01*
G37*
D11*
X53212000Y-37973000D03*
X49912000Y-37973000D03*
X49912000Y-31242000D03*
X53212000Y-31242000D03*
G36*
G01*
X27150000Y-66496250D02*
X27150000Y-65583750D01*
G75*
G02*
X27393750Y-65340000I243750J0D01*
G01*
X27881250Y-65340000D01*
G75*
G02*
X28125000Y-65583750I0J-243750D01*
G01*
X28125000Y-66496250D01*
G75*
G02*
X27881250Y-66740000I-243750J0D01*
G01*
X27393750Y-66740000D01*
G75*
G02*
X27150000Y-66496250I0J243750D01*
G01*
G37*
G36*
G01*
X29025000Y-66496250D02*
X29025000Y-65583750D01*
G75*
G02*
X29268750Y-65340000I243750J0D01*
G01*
X29756250Y-65340000D01*
G75*
G02*
X30000000Y-65583750I0J-243750D01*
G01*
X30000000Y-66496250D01*
G75*
G02*
X29756250Y-66740000I-243750J0D01*
G01*
X29268750Y-66740000D01*
G75*
G02*
X29025000Y-66496250I0J243750D01*
G01*
G37*
G36*
G01*
X41807000Y-50203000D02*
X41807000Y-50503000D01*
G75*
G02*
X41657000Y-50653000I-150000J0D01*
G01*
X40482000Y-50653000D01*
G75*
G02*
X40332000Y-50503000I0J150000D01*
G01*
X40332000Y-50203000D01*
G75*
G02*
X40482000Y-50053000I150000J0D01*
G01*
X41657000Y-50053000D01*
G75*
G02*
X41807000Y-50203000I0J-150000D01*
G01*
G37*
G36*
G01*
X41807000Y-48303000D02*
X41807000Y-48603000D01*
G75*
G02*
X41657000Y-48753000I-150000J0D01*
G01*
X40482000Y-48753000D01*
G75*
G02*
X40332000Y-48603000I0J150000D01*
G01*
X40332000Y-48303000D01*
G75*
G02*
X40482000Y-48153000I150000J0D01*
G01*
X41657000Y-48153000D01*
G75*
G02*
X41807000Y-48303000I0J-150000D01*
G01*
G37*
G36*
G01*
X39932000Y-49253000D02*
X39932000Y-49553000D01*
G75*
G02*
X39782000Y-49703000I-150000J0D01*
G01*
X38607000Y-49703000D01*
G75*
G02*
X38457000Y-49553000I0J150000D01*
G01*
X38457000Y-49253000D01*
G75*
G02*
X38607000Y-49103000I150000J0D01*
G01*
X39782000Y-49103000D01*
G75*
G02*
X39932000Y-49253000I0J-150000D01*
G01*
G37*
X53212000Y-34544000D03*
X49912000Y-34544000D03*
G36*
G01*
X38580000Y-45154000D02*
X38580000Y-44254000D01*
G75*
G02*
X38830000Y-44004000I250000J0D01*
G01*
X39355000Y-44004000D01*
G75*
G02*
X39605000Y-44254000I0J-250000D01*
G01*
X39605000Y-45154000D01*
G75*
G02*
X39355000Y-45404000I-250000J0D01*
G01*
X38830000Y-45404000D01*
G75*
G02*
X38580000Y-45154000I0J250000D01*
G01*
G37*
G36*
G01*
X40405000Y-45154000D02*
X40405000Y-44254000D01*
G75*
G02*
X40655000Y-44004000I250000J0D01*
G01*
X41180000Y-44004000D01*
G75*
G02*
X41430000Y-44254000I0J-250000D01*
G01*
X41430000Y-45154000D01*
G75*
G02*
X41180000Y-45404000I-250000J0D01*
G01*
X40655000Y-45404000D01*
G75*
G02*
X40405000Y-45154000I0J250000D01*
G01*
G37*
G36*
G01*
X55852000Y-61664000D02*
X55852000Y-60764000D01*
G75*
G02*
X56102000Y-60514000I250000J0D01*
G01*
X56627000Y-60514000D01*
G75*
G02*
X56877000Y-60764000I0J-250000D01*
G01*
X56877000Y-61664000D01*
G75*
G02*
X56627000Y-61914000I-250000J0D01*
G01*
X56102000Y-61914000D01*
G75*
G02*
X55852000Y-61664000I0J250000D01*
G01*
G37*
G36*
G01*
X57677000Y-61664000D02*
X57677000Y-60764000D01*
G75*
G02*
X57927000Y-60514000I250000J0D01*
G01*
X58452000Y-60514000D01*
G75*
G02*
X58702000Y-60764000I0J-250000D01*
G01*
X58702000Y-61664000D01*
G75*
G02*
X58452000Y-61914000I-250000J0D01*
G01*
X57927000Y-61914000D01*
G75*
G02*
X57677000Y-61664000I0J250000D01*
G01*
G37*
G36*
G01*
X56228000Y-46916000D02*
X55278000Y-46916000D01*
G75*
G02*
X55028000Y-46666000I0J250000D01*
G01*
X55028000Y-46166000D01*
G75*
G02*
X55278000Y-45916000I250000J0D01*
G01*
X56228000Y-45916000D01*
G75*
G02*
X56478000Y-46166000I0J-250000D01*
G01*
X56478000Y-46666000D01*
G75*
G02*
X56228000Y-46916000I-250000J0D01*
G01*
G37*
G36*
G01*
X56228000Y-45016000D02*
X55278000Y-45016000D01*
G75*
G02*
X55028000Y-44766000I0J250000D01*
G01*
X55028000Y-44266000D01*
G75*
G02*
X55278000Y-44016000I250000J0D01*
G01*
X56228000Y-44016000D01*
G75*
G02*
X56478000Y-44266000I0J-250000D01*
G01*
X56478000Y-44766000D01*
G75*
G02*
X56228000Y-45016000I-250000J0D01*
G01*
G37*
G36*
G01*
X47338000Y-46916000D02*
X46388000Y-46916000D01*
G75*
G02*
X46138000Y-46666000I0J250000D01*
G01*
X46138000Y-46166000D01*
G75*
G02*
X46388000Y-45916000I250000J0D01*
G01*
X47338000Y-45916000D01*
G75*
G02*
X47588000Y-46166000I0J-250000D01*
G01*
X47588000Y-46666000D01*
G75*
G02*
X47338000Y-46916000I-250000J0D01*
G01*
G37*
G36*
G01*
X47338000Y-45016000D02*
X46388000Y-45016000D01*
G75*
G02*
X46138000Y-44766000I0J250000D01*
G01*
X46138000Y-44266000D01*
G75*
G02*
X46388000Y-44016000I250000J0D01*
G01*
X47338000Y-44016000D01*
G75*
G02*
X47588000Y-44266000I0J-250000D01*
G01*
X47588000Y-44766000D01*
G75*
G02*
X47338000Y-45016000I-250000J0D01*
G01*
G37*
M02*
