M48
INCH,TZ
T1C0.0130
T2C0.0157
T3C0.0394
T4C0.0472
T5C0.0512
T6C0.1260
%
G90
G05
T1
X16507Y-15288
X16507Y-15800
X16507Y-16312
X17019Y-15288
X17019Y-15800
X17019Y-16312
T2
X10700Y-25300
X15550Y-20850
X15800Y-21100
X16050Y-21350
X16552Y-13501
X16900Y-19076
X17050Y-13950
X17050Y-14400
X17250Y-19076
X17350Y-12650
X17350Y-13050
X17626Y-19076
X17650Y-18300
X17650Y-19650
X17848Y-12649
X17848Y-13049
X17950Y-20100
X18400Y-12650
X18400Y-13050
X18650Y-15050
X18650Y-15550
X18650Y-16050
X19050Y-13350
X19050Y-13950
X19500Y-16800
X19500Y-17250
X19500Y-17650
X20900Y-16800
X20900Y-17250
X20900Y-17650
X22350Y-21700
X25500Y-28150
X25504Y-26300
T3
X26100Y-16100
X27100Y-16100
X28100Y-16100
T4
X14544Y-27150
X15922Y-27150
X17300Y-27150
X19572Y-27150
X20950Y-27150
X22328Y-27150
X27071Y-18472
X27071Y-19850
X27071Y-21228
T5
X12941Y-14554
X12941Y-16522
X23566Y-12816
X25534Y-12816
T6
X11700Y-11700
X11700Y-28300
X28300Y-11700
X28300Y-28300
M30
