G04 #@! TF.GenerationSoftware,KiCad,Pcbnew,9.0.9-9.0.9~ubuntu24.04.1*
G04 #@! TF.CreationDate,2026-08-23T16:43:13-06:00*
G04 #@! TF.ProjectId,ckt-katoswitch,636b742d-6b61-4746-9f73-77697463682e,rev?*
G04 #@! TF.SameCoordinates,Original*
G04 #@! TF.FileFunction,Soldermask,Top*
G04 #@! TF.FilePolarity,Negative*
%FSLAX46Y46*%
G04 Gerber Fmt 4.6, Leading zero omitted, Abs format (unit mm)*
G04 Created by KiCad (PCBNEW 9.0.9-9.0.9~ubuntu24.04.1) date 2026-08-23 16:43:13*
%MOMM*%
%LPD*%
G01*
G04 APERTURE LIST*
%ADD10C,6.552400*%
%ADD11C,2.452400*%
%ADD12C,2.652400*%
%ADD13R,2.400000X3.100000*%
%ADD14C,0.770000*%
%ADD15C,1.143000*%
%ADD16C,0.939800*%
%ADD17C,1.852400*%
G04 APERTURE END LIST*
G36*
X64280747Y-73631959D02*
G01*
X63980747Y-73631959D01*
X63980747Y-72131959D01*
X64280747Y-72131959D01*
X64280747Y-73631959D01*
G37*
G36*
X64280747Y-69059959D02*
G01*
X63980747Y-69059959D01*
X63980747Y-67559959D01*
X64280747Y-67559959D01*
X64280747Y-69059959D01*
G37*
G36*
X64295747Y-64487959D02*
G01*
X63995747Y-64487959D01*
X63995747Y-62987959D01*
X64295747Y-62987959D01*
X64295747Y-64487959D01*
G37*
G36*
G01*
X59839800Y-39605030D02*
X59839800Y-38626970D01*
G75*
G02*
X60126970Y-38339800I287170J0D01*
G01*
X60730030Y-38339800D01*
G75*
G02*
X61017200Y-38626970I0J-287170D01*
G01*
X61017200Y-39605030D01*
G75*
G02*
X60730030Y-39892200I-287170J0D01*
G01*
X60126970Y-39892200D01*
G75*
G02*
X59839800Y-39605030I0J287170D01*
G01*
G37*
G36*
G01*
X61664800Y-39605030D02*
X61664800Y-38626970D01*
G75*
G02*
X61951970Y-38339800I287170J0D01*
G01*
X62555030Y-38339800D01*
G75*
G02*
X62842200Y-38626970I0J-287170D01*
G01*
X62842200Y-39605030D01*
G75*
G02*
X62555030Y-39892200I-287170J0D01*
G01*
X61951970Y-39892200D01*
G75*
G02*
X61664800Y-39605030I0J287170D01*
G01*
G37*
G36*
G01*
X59295381Y-46221335D02*
X59295381Y-45195135D01*
G75*
G02*
X59583481Y-44907035I288100J0D01*
G01*
X60159681Y-44907035D01*
G75*
G02*
X60447781Y-45195135I0J-288100D01*
G01*
X60447781Y-46221335D01*
G75*
G02*
X60159681Y-46509435I-288100J0D01*
G01*
X59583481Y-46509435D01*
G75*
G02*
X59295381Y-46221335I0J288100D01*
G01*
G37*
G36*
G01*
X61195381Y-46221335D02*
X61195381Y-45195135D01*
G75*
G02*
X61483481Y-44907035I288100J0D01*
G01*
X62059681Y-44907035D01*
G75*
G02*
X62347781Y-45195135I0J-288100D01*
G01*
X62347781Y-46221335D01*
G75*
G02*
X62059681Y-46509435I-288100J0D01*
G01*
X61483481Y-46509435D01*
G75*
G02*
X61195381Y-46221335I0J288100D01*
G01*
G37*
D10*
X29718000Y-29718000D03*
G36*
G01*
X48486800Y-69920634D02*
X48486800Y-68001366D01*
G75*
G02*
X48753366Y-67734800I266566J0D01*
G01*
X50672634Y-67734800D01*
G75*
G02*
X50939200Y-68001366I0J-266566D01*
G01*
X50939200Y-69920634D01*
G75*
G02*
X50672634Y-70187200I-266566J0D01*
G01*
X48753366Y-70187200D01*
G75*
G02*
X48486800Y-69920634I0J266566D01*
G01*
G37*
D11*
X53213000Y-68961000D03*
X56713000Y-68961000D03*
G36*
G01*
X64297200Y-58354000D02*
X64297200Y-58994000D01*
G75*
G02*
X64221000Y-59070200I-76200J0D01*
G01*
X62221000Y-59070200D01*
G75*
G02*
X62144800Y-58994000I0J76200D01*
G01*
X62144800Y-58354000D01*
G75*
G02*
X62221000Y-58277800I76200J0D01*
G01*
X64221000Y-58277800D01*
G75*
G02*
X64297200Y-58354000I0J-76200D01*
G01*
G37*
G36*
G01*
X64297200Y-55814000D02*
X64297200Y-56454000D01*
G75*
G02*
X64221000Y-56530200I-76200J0D01*
G01*
X62221000Y-56530200D01*
G75*
G02*
X62144800Y-56454000I0J76200D01*
G01*
X62144800Y-55814000D01*
G75*
G02*
X62221000Y-55737800I76200J0D01*
G01*
X64221000Y-55737800D01*
G75*
G02*
X64297200Y-55814000I0J-76200D01*
G01*
G37*
G36*
G01*
X57997200Y-55814000D02*
X57997200Y-56454000D01*
G75*
G02*
X57921000Y-56530200I-76200J0D01*
G01*
X55921000Y-56530200D01*
G75*
G02*
X55844800Y-56454000I0J76200D01*
G01*
X55844800Y-55814000D01*
G75*
G02*
X55921000Y-55737800I76200J0D01*
G01*
X57921000Y-55737800D01*
G75*
G02*
X57997200Y-55814000I0J-76200D01*
G01*
G37*
G36*
G01*
X57997200Y-58354000D02*
X57997200Y-58994000D01*
G75*
G02*
X57921000Y-59070200I-76200J0D01*
G01*
X55921000Y-59070200D01*
G75*
G02*
X55844800Y-58994000I0J76200D01*
G01*
X55844800Y-58354000D01*
G75*
G02*
X55921000Y-58277800I76200J0D01*
G01*
X57921000Y-58277800D01*
G75*
G02*
X57997200Y-58354000I0J-76200D01*
G01*
G37*
G36*
G01*
X49135800Y-28890000D02*
X49135800Y-26990000D01*
G75*
G02*
X49212000Y-26913800I76200J0D01*
G01*
X50612000Y-26913800D01*
G75*
G02*
X50688200Y-26990000I0J-76200D01*
G01*
X50688200Y-28890000D01*
G75*
G02*
X50612000Y-28966200I-76200J0D01*
G01*
X49212000Y-28966200D01*
G75*
G02*
X49135800Y-28890000I0J76200D01*
G01*
G37*
G36*
G01*
X52435800Y-28890000D02*
X52435800Y-26990000D01*
G75*
G02*
X52512000Y-26913800I76200J0D01*
G01*
X53912000Y-26913800D01*
G75*
G02*
X53988200Y-26990000I0J-76200D01*
G01*
X53988200Y-28890000D01*
G75*
G02*
X53912000Y-28966200I-76200J0D01*
G01*
X52512000Y-28966200D01*
G75*
G02*
X52435800Y-28890000I0J76200D01*
G01*
G37*
G36*
G01*
X59320381Y-43784265D02*
X59320381Y-42806205D01*
G75*
G02*
X59607551Y-42519035I287170J0D01*
G01*
X60210611Y-42519035D01*
G75*
G02*
X60497781Y-42806205I0J-287170D01*
G01*
X60497781Y-43784265D01*
G75*
G02*
X60210611Y-44071435I-287170J0D01*
G01*
X59607551Y-44071435D01*
G75*
G02*
X59320381Y-43784265I0J287170D01*
G01*
G37*
G36*
G01*
X61145381Y-43784265D02*
X61145381Y-42806205D01*
G75*
G02*
X61432551Y-42519035I287170J0D01*
G01*
X62035611Y-42519035D01*
G75*
G02*
X62322781Y-42806205I0J-287170D01*
G01*
X62322781Y-43784265D01*
G75*
G02*
X62035611Y-44071435I-287170J0D01*
G01*
X61432551Y-44071435D01*
G75*
G02*
X61145381Y-43784265I0J287170D01*
G01*
G37*
G36*
G01*
X31809790Y-35640800D02*
X33931710Y-35640800D01*
G75*
G02*
X34196950Y-35906040I0J-265240D01*
G01*
X34196950Y-38027960D01*
G75*
G02*
X33931710Y-38293200I-265240J0D01*
G01*
X31809790Y-38293200D01*
G75*
G02*
X31544550Y-38027960I0J265240D01*
G01*
X31544550Y-35906040D01*
G75*
G02*
X31809790Y-35640800I265240J0D01*
G01*
G37*
D12*
X32870750Y-41967000D03*
G36*
G01*
X38145800Y-31209387D02*
X38145800Y-30004613D01*
G75*
G02*
X38419613Y-29730800I273813J0D01*
G01*
X41524387Y-29730800D01*
G75*
G02*
X41798200Y-30004613I0J-273813D01*
G01*
X41798200Y-31209387D01*
G75*
G02*
X41524387Y-31483200I-273813J0D01*
G01*
X38419613Y-31483200D01*
G75*
G02*
X38145800Y-31209387I0J273813D01*
G01*
G37*
G36*
G01*
X43545800Y-31209387D02*
X43545800Y-30004613D01*
G75*
G02*
X43819613Y-29730800I273813J0D01*
G01*
X46924387Y-29730800D01*
G75*
G02*
X47198200Y-30004613I0J-273813D01*
G01*
X47198200Y-31209387D01*
G75*
G02*
X46924387Y-31483200I-273813J0D01*
G01*
X43819613Y-31483200D01*
G75*
G02*
X43545800Y-31209387I0J273813D01*
G01*
G37*
G36*
X64231767Y-73690332D02*
G01*
X64205705Y-73645191D01*
X64204547Y-73631959D01*
X64204547Y-72131959D01*
X64222374Y-72082979D01*
X64267515Y-72056917D01*
X64280747Y-72055759D01*
X64780747Y-72055759D01*
X64792501Y-72060037D01*
X64846010Y-72060037D01*
X64865732Y-72062633D01*
X64991811Y-72096415D01*
X65010189Y-72104028D01*
X65123228Y-72169291D01*
X65139010Y-72181400D01*
X65231306Y-72273696D01*
X65243415Y-72289478D01*
X65308678Y-72402517D01*
X65316291Y-72420895D01*
X65350073Y-72546974D01*
X65352669Y-72566696D01*
X65352669Y-72613323D01*
X65355789Y-72618727D01*
X65356947Y-72631959D01*
X65356947Y-73131959D01*
X65352669Y-73143712D01*
X65352669Y-73197222D01*
X65350073Y-73216944D01*
X65316291Y-73343023D01*
X65308678Y-73361401D01*
X65243415Y-73474440D01*
X65231306Y-73490222D01*
X65139010Y-73582518D01*
X65123228Y-73594627D01*
X65010189Y-73659890D01*
X64991811Y-73667503D01*
X64865732Y-73701285D01*
X64846010Y-73703881D01*
X64799383Y-73703881D01*
X64793979Y-73707001D01*
X64780747Y-73708159D01*
X64280747Y-73708159D01*
X64231767Y-73690332D01*
G37*
G36*
X63468993Y-73703881D02*
G01*
X63415484Y-73703881D01*
X63395762Y-73701285D01*
X63269683Y-73667503D01*
X63251305Y-73659890D01*
X63138266Y-73594627D01*
X63122484Y-73582518D01*
X63030188Y-73490222D01*
X63018079Y-73474440D01*
X62952816Y-73361401D01*
X62945203Y-73343023D01*
X62911421Y-73216944D01*
X62908825Y-73197222D01*
X62908825Y-73150595D01*
X62905705Y-73145191D01*
X62904547Y-73131959D01*
X62904547Y-72631959D01*
X62908825Y-72620206D01*
X62908825Y-72566696D01*
X62911421Y-72546974D01*
X62945203Y-72420895D01*
X62952816Y-72402517D01*
X63018079Y-72289478D01*
X63030188Y-72273696D01*
X63122484Y-72181400D01*
X63138266Y-72169291D01*
X63251305Y-72104028D01*
X63269683Y-72096415D01*
X63395762Y-72062633D01*
X63415484Y-72060037D01*
X63462111Y-72060037D01*
X63467515Y-72056917D01*
X63480747Y-72055759D01*
X63980747Y-72055759D01*
X64029727Y-72073586D01*
X64055789Y-72118727D01*
X64056947Y-72131959D01*
X64056947Y-73631959D01*
X64039120Y-73680939D01*
X63993979Y-73707001D01*
X63980747Y-73708159D01*
X63480747Y-73708159D01*
X63468993Y-73703881D01*
G37*
G36*
G01*
X27638700Y-51949300D02*
X27638700Y-51149300D01*
G75*
G02*
X27714900Y-51073100I76200J0D01*
G01*
X30374900Y-51073100D01*
G75*
G02*
X30451100Y-51149300I0J-76200D01*
G01*
X30451100Y-51949300D01*
G75*
G02*
X30374900Y-52025500I-76200J0D01*
G01*
X27714900Y-52025500D01*
G75*
G02*
X27638700Y-51949300I0J76200D01*
G01*
G37*
G36*
G01*
X27638700Y-55149700D02*
X27638700Y-54349700D01*
G75*
G02*
X27714900Y-54273500I76200J0D01*
G01*
X30374900Y-54273500D01*
G75*
G02*
X30451100Y-54349700I0J-76200D01*
G01*
X30451100Y-55149700D01*
G75*
G02*
X30374900Y-55225900I-76200J0D01*
G01*
X27714900Y-55225900D01*
G75*
G02*
X27638700Y-55149700I0J76200D01*
G01*
G37*
G36*
G01*
X27638700Y-57359500D02*
X27638700Y-56559500D01*
G75*
G02*
X27714900Y-56483300I76200J0D01*
G01*
X30374900Y-56483300D01*
G75*
G02*
X30451100Y-56559500I0J-76200D01*
G01*
X30451100Y-57359500D01*
G75*
G02*
X30374900Y-57435700I-76200J0D01*
G01*
X27714900Y-57435700D01*
G75*
G02*
X27638700Y-57359500I0J76200D01*
G01*
G37*
G36*
G01*
X27638700Y-59569300D02*
X27638700Y-58769300D01*
G75*
G02*
X27714900Y-58693100I76200J0D01*
G01*
X30374900Y-58693100D01*
G75*
G02*
X30451100Y-58769300I0J-76200D01*
G01*
X30451100Y-59569300D01*
G75*
G02*
X30374900Y-59645500I-76200J0D01*
G01*
X27714900Y-59645500D01*
G75*
G02*
X27638700Y-59569300I0J76200D01*
G01*
G37*
G36*
G01*
X34826900Y-59569300D02*
X34826900Y-58769300D01*
G75*
G02*
X34903100Y-58693100I76200J0D01*
G01*
X37563100Y-58693100D01*
G75*
G02*
X37639300Y-58769300I0J-76200D01*
G01*
X37639300Y-59569300D01*
G75*
G02*
X37563100Y-59645500I-76200J0D01*
G01*
X34903100Y-59645500D01*
G75*
G02*
X34826900Y-59569300I0J76200D01*
G01*
G37*
G36*
G01*
X34826900Y-57359500D02*
X34826900Y-56559500D01*
G75*
G02*
X34903100Y-56483300I76200J0D01*
G01*
X37563100Y-56483300D01*
G75*
G02*
X37639300Y-56559500I0J-76200D01*
G01*
X37639300Y-57359500D01*
G75*
G02*
X37563100Y-57435700I-76200J0D01*
G01*
X34903100Y-57435700D01*
G75*
G02*
X34826900Y-57359500I0J76200D01*
G01*
G37*
G36*
G01*
X34826900Y-55149700D02*
X34826900Y-54349700D01*
G75*
G02*
X34903100Y-54273500I76200J0D01*
G01*
X37563100Y-54273500D01*
G75*
G02*
X37639300Y-54349700I0J-76200D01*
G01*
X37639300Y-55149700D01*
G75*
G02*
X37563100Y-55225900I-76200J0D01*
G01*
X34903100Y-55225900D01*
G75*
G02*
X34826900Y-55149700I0J76200D01*
G01*
G37*
G36*
G01*
X34826900Y-51949300D02*
X34826900Y-51149300D01*
G75*
G02*
X34903100Y-51073100I76200J0D01*
G01*
X37563100Y-51073100D01*
G75*
G02*
X37639300Y-51149300I0J-76200D01*
G01*
X37639300Y-51949300D01*
G75*
G02*
X37563100Y-52025500I-76200J0D01*
G01*
X34903100Y-52025500D01*
G75*
G02*
X34826900Y-51949300I0J76200D01*
G01*
G37*
G36*
G01*
X36045200Y-45860650D02*
X36045200Y-46849350D01*
G75*
G02*
X35763350Y-47131200I-281850J0D01*
G01*
X35199650Y-47131200D01*
G75*
G02*
X34917800Y-46849350I0J281850D01*
G01*
X34917800Y-45860650D01*
G75*
G02*
X35199650Y-45578800I281850J0D01*
G01*
X35763350Y-45578800D01*
G75*
G02*
X36045200Y-45860650I0J-281850D01*
G01*
G37*
G36*
G01*
X34170200Y-45860650D02*
X34170200Y-46849350D01*
G75*
G02*
X33888350Y-47131200I-281850J0D01*
G01*
X33324650Y-47131200D01*
G75*
G02*
X33042800Y-46849350I0J281850D01*
G01*
X33042800Y-45860650D01*
G75*
G02*
X33324650Y-45578800I281850J0D01*
G01*
X33888350Y-45578800D01*
G75*
G02*
X34170200Y-45860650I0J-281850D01*
G01*
G37*
D10*
X71882000Y-29718000D03*
X29718000Y-71882000D03*
G36*
G01*
X39494800Y-36327100D02*
X39494800Y-35300900D01*
G75*
G02*
X39782900Y-35012800I288100J0D01*
G01*
X40359100Y-35012800D01*
G75*
G02*
X40647200Y-35300900I0J-288100D01*
G01*
X40647200Y-36327100D01*
G75*
G02*
X40359100Y-36615200I-288100J0D01*
G01*
X39782900Y-36615200D01*
G75*
G02*
X39494800Y-36327100I0J288100D01*
G01*
G37*
G36*
G01*
X41394800Y-36327100D02*
X41394800Y-35300900D01*
G75*
G02*
X41682900Y-35012800I288100J0D01*
G01*
X42259100Y-35012800D01*
G75*
G02*
X42547200Y-35300900I0J-288100D01*
G01*
X42547200Y-36327100D01*
G75*
G02*
X42259100Y-36615200I-288100J0D01*
G01*
X41682900Y-36615200D01*
G75*
G02*
X41394800Y-36327100I0J288100D01*
G01*
G37*
G36*
G01*
X59295381Y-48761335D02*
X59295381Y-47735135D01*
G75*
G02*
X59583481Y-47447035I288100J0D01*
G01*
X60159681Y-47447035D01*
G75*
G02*
X60447781Y-47735135I0J-288100D01*
G01*
X60447781Y-48761335D01*
G75*
G02*
X60159681Y-49049435I-288100J0D01*
G01*
X59583481Y-49049435D01*
G75*
G02*
X59295381Y-48761335I0J288100D01*
G01*
G37*
G36*
G01*
X61195381Y-48761335D02*
X61195381Y-47735135D01*
G75*
G02*
X61483481Y-47447035I288100J0D01*
G01*
X62059681Y-47447035D01*
G75*
G02*
X62347781Y-47735135I0J-288100D01*
G01*
X62347781Y-48761335D01*
G75*
G02*
X62059681Y-49049435I-288100J0D01*
G01*
X61483481Y-49049435D01*
G75*
G02*
X61195381Y-48761335I0J288100D01*
G01*
G37*
D13*
X42578250Y-40132000D03*
G36*
G01*
X46623250Y-41787000D02*
X46623250Y-42287000D01*
G75*
G02*
X46553250Y-42357000I-70000J0D01*
G01*
X44353250Y-42357000D01*
G75*
G02*
X44283250Y-42287000I0J70000D01*
G01*
X44283250Y-41787000D01*
G75*
G02*
X44353250Y-41717000I70000J0D01*
G01*
X46553250Y-41717000D01*
G75*
G02*
X46623250Y-41787000I0J-70000D01*
G01*
G37*
G36*
G01*
X46623250Y-40517000D02*
X46623250Y-41017000D01*
G75*
G02*
X46553250Y-41087000I-70000J0D01*
G01*
X44353250Y-41087000D01*
G75*
G02*
X44283250Y-41017000I0J70000D01*
G01*
X44283250Y-40517000D01*
G75*
G02*
X44353250Y-40447000I70000J0D01*
G01*
X46553250Y-40447000D01*
G75*
G02*
X46623250Y-40517000I0J-70000D01*
G01*
G37*
G36*
G01*
X46623250Y-39247000D02*
X46623250Y-39747000D01*
G75*
G02*
X46553250Y-39817000I-70000J0D01*
G01*
X44353250Y-39817000D01*
G75*
G02*
X44283250Y-39747000I0J70000D01*
G01*
X44283250Y-39247000D01*
G75*
G02*
X44353250Y-39177000I70000J0D01*
G01*
X46553250Y-39177000D01*
G75*
G02*
X46623250Y-39247000I0J-70000D01*
G01*
G37*
G36*
G01*
X46623250Y-37977000D02*
X46623250Y-38477000D01*
G75*
G02*
X46553250Y-38547000I-70000J0D01*
G01*
X44353250Y-38547000D01*
G75*
G02*
X44283250Y-38477000I0J70000D01*
G01*
X44283250Y-37977000D01*
G75*
G02*
X44353250Y-37907000I70000J0D01*
G01*
X46553250Y-37907000D01*
G75*
G02*
X46623250Y-37977000I0J-70000D01*
G01*
G37*
G36*
G01*
X40873250Y-37977000D02*
X40873250Y-38477000D01*
G75*
G02*
X40803250Y-38547000I-70000J0D01*
G01*
X38603250Y-38547000D01*
G75*
G02*
X38533250Y-38477000I0J70000D01*
G01*
X38533250Y-37977000D01*
G75*
G02*
X38603250Y-37907000I70000J0D01*
G01*
X40803250Y-37907000D01*
G75*
G02*
X40873250Y-37977000I0J-70000D01*
G01*
G37*
G36*
G01*
X40873250Y-39247000D02*
X40873250Y-39747000D01*
G75*
G02*
X40803250Y-39817000I-70000J0D01*
G01*
X38603250Y-39817000D01*
G75*
G02*
X38533250Y-39747000I0J70000D01*
G01*
X38533250Y-39247000D01*
G75*
G02*
X38603250Y-39177000I70000J0D01*
G01*
X40803250Y-39177000D01*
G75*
G02*
X40873250Y-39247000I0J-70000D01*
G01*
G37*
G36*
G01*
X40873250Y-40517000D02*
X40873250Y-41017000D01*
G75*
G02*
X40803250Y-41087000I-70000J0D01*
G01*
X38603250Y-41087000D01*
G75*
G02*
X38533250Y-41017000I0J70000D01*
G01*
X38533250Y-40517000D01*
G75*
G02*
X38603250Y-40447000I70000J0D01*
G01*
X40803250Y-40447000D01*
G75*
G02*
X40873250Y-40517000I0J-70000D01*
G01*
G37*
G36*
G01*
X40873250Y-41787000D02*
X40873250Y-42287000D01*
G75*
G02*
X40803250Y-42357000I-70000J0D01*
G01*
X38603250Y-42357000D01*
G75*
G02*
X38533250Y-42287000I0J70000D01*
G01*
X38533250Y-41787000D01*
G75*
G02*
X38603250Y-41717000I70000J0D01*
G01*
X40803250Y-41717000D01*
G75*
G02*
X40873250Y-41787000I0J-70000D01*
G01*
G37*
D14*
X43228250Y-41432000D03*
X43228250Y-40132000D03*
X43228250Y-38832000D03*
X41928250Y-41432000D03*
X41928250Y-40132000D03*
X41928250Y-38832000D03*
G36*
G01*
X72240200Y-34811650D02*
X72240200Y-35800350D01*
G75*
G02*
X71958350Y-36082200I-281850J0D01*
G01*
X71394650Y-36082200D01*
G75*
G02*
X71112800Y-35800350I0J281850D01*
G01*
X71112800Y-34811650D01*
G75*
G02*
X71394650Y-34529800I281850J0D01*
G01*
X71958350Y-34529800D01*
G75*
G02*
X72240200Y-34811650I0J-281850D01*
G01*
G37*
G36*
G01*
X70365200Y-34811650D02*
X70365200Y-35800350D01*
G75*
G02*
X70083350Y-36082200I-281850J0D01*
G01*
X69519650Y-36082200D01*
G75*
G02*
X69237800Y-35800350I0J281850D01*
G01*
X69237800Y-34811650D01*
G75*
G02*
X69519650Y-34529800I281850J0D01*
G01*
X70083350Y-34529800D01*
G75*
G02*
X70365200Y-34811650I0J-281850D01*
G01*
G37*
G36*
G01*
X50083000Y-47207200D02*
X49533000Y-47207200D01*
G75*
G02*
X49456800Y-47131000I0J76200D01*
G01*
X49456800Y-45831000D01*
G75*
G02*
X49533000Y-45754800I76200J0D01*
G01*
X50083000Y-45754800D01*
G75*
G02*
X50159200Y-45831000I0J-76200D01*
G01*
X50159200Y-47131000D01*
G75*
G02*
X50083000Y-47207200I-76200J0D01*
G01*
G37*
G36*
X50324627Y-42482020D02*
G01*
X50369768Y-42455958D01*
X50383000Y-42454800D01*
X52233000Y-42454800D01*
X52281980Y-42472627D01*
X52308042Y-42517768D01*
X52309200Y-42531000D01*
X52309200Y-45131000D01*
X52291373Y-45179980D01*
X52286882Y-45184882D01*
X51784200Y-45687564D01*
X51784200Y-47131000D01*
X51766373Y-47179980D01*
X51721232Y-47206042D01*
X51708000Y-47207200D01*
X50908000Y-47207200D01*
X50859020Y-47189373D01*
X50832958Y-47144232D01*
X50831800Y-47131000D01*
X50831800Y-45687564D01*
X50329118Y-45184882D01*
X50307090Y-45137641D01*
X50306800Y-45131000D01*
X50306800Y-42531000D01*
X50324627Y-42482020D01*
G37*
G36*
G01*
X53083000Y-47207200D02*
X52533000Y-47207200D01*
G75*
G02*
X52456800Y-47131000I0J76200D01*
G01*
X52456800Y-45831000D01*
G75*
G02*
X52533000Y-45754800I76200J0D01*
G01*
X53083000Y-45754800D01*
G75*
G02*
X53159200Y-45831000I0J-76200D01*
G01*
X53159200Y-47131000D01*
G75*
G02*
X53083000Y-47207200I-76200J0D01*
G01*
G37*
G36*
G01*
X66183200Y-31490722D02*
X66183200Y-33612642D01*
G75*
G02*
X65917960Y-33877882I-265240J0D01*
G01*
X63796040Y-33877882D01*
G75*
G02*
X63530800Y-33612642I0J265240D01*
G01*
X63530800Y-31490722D01*
G75*
G02*
X63796040Y-31225482I265240J0D01*
G01*
X65917960Y-31225482D01*
G75*
G02*
X66183200Y-31490722I0J-265240D01*
G01*
G37*
D12*
X59857000Y-32551682D03*
G36*
G01*
X59320381Y-51277265D02*
X59320381Y-50299205D01*
G75*
G02*
X59607551Y-50012035I287170J0D01*
G01*
X60210611Y-50012035D01*
G75*
G02*
X60497781Y-50299205I0J-287170D01*
G01*
X60497781Y-51277265D01*
G75*
G02*
X60210611Y-51564435I-287170J0D01*
G01*
X59607551Y-51564435D01*
G75*
G02*
X59320381Y-51277265I0J287170D01*
G01*
G37*
G36*
G01*
X61145381Y-51277265D02*
X61145381Y-50299205D01*
G75*
G02*
X61432551Y-50012035I287170J0D01*
G01*
X62035611Y-50012035D01*
G75*
G02*
X62322781Y-50299205I0J-287170D01*
G01*
X62322781Y-51277265D01*
G75*
G02*
X62035611Y-51564435I-287170J0D01*
G01*
X61432551Y-51564435D01*
G75*
G02*
X61145381Y-51277265I0J287170D01*
G01*
G37*
D15*
X42926000Y-58547000D03*
X41910000Y-53467000D03*
X43942000Y-53467000D03*
D16*
X43561000Y-57277000D03*
X42291000Y-57277000D03*
X43561000Y-56007000D03*
X42291000Y-56007000D03*
X43561000Y-54737000D03*
X42291000Y-54737000D03*
G36*
G01*
X69719134Y-55145200D02*
X67799866Y-55145200D01*
G75*
G02*
X67533300Y-54878634I0J266566D01*
G01*
X67533300Y-52959366D01*
G75*
G02*
X67799866Y-52692800I266566J0D01*
G01*
X69719134Y-52692800D01*
G75*
G02*
X69985700Y-52959366I0J-266566D01*
G01*
X69985700Y-54878634D01*
G75*
G02*
X69719134Y-55145200I-266566J0D01*
G01*
G37*
D11*
X68759500Y-50419000D03*
X68759500Y-46919000D03*
G36*
G01*
X32108200Y-45860650D02*
X32108200Y-46849350D01*
G75*
G02*
X31826350Y-47131200I-281850J0D01*
G01*
X31262650Y-47131200D01*
G75*
G02*
X30980800Y-46849350I0J281850D01*
G01*
X30980800Y-45860650D01*
G75*
G02*
X31262650Y-45578800I281850J0D01*
G01*
X31826350Y-45578800D01*
G75*
G02*
X32108200Y-45860650I0J-281850D01*
G01*
G37*
G36*
G01*
X30233200Y-45860650D02*
X30233200Y-46849350D01*
G75*
G02*
X29951350Y-47131200I-281850J0D01*
G01*
X29387650Y-47131200D01*
G75*
G02*
X29105800Y-46849350I0J281850D01*
G01*
X29105800Y-45860650D01*
G75*
G02*
X29387650Y-45578800I281850J0D01*
G01*
X29951350Y-45578800D01*
G75*
G02*
X30233200Y-45860650I0J-281850D01*
G01*
G37*
G36*
G01*
X59331800Y-53829030D02*
X59331800Y-52850970D01*
G75*
G02*
X59618970Y-52563800I287170J0D01*
G01*
X60222030Y-52563800D01*
G75*
G02*
X60509200Y-52850970I0J-287170D01*
G01*
X60509200Y-53829030D01*
G75*
G02*
X60222030Y-54116200I-287170J0D01*
G01*
X59618970Y-54116200D01*
G75*
G02*
X59331800Y-53829030I0J287170D01*
G01*
G37*
G36*
G01*
X61156800Y-53829030D02*
X61156800Y-52850970D01*
G75*
G02*
X61443970Y-52563800I287170J0D01*
G01*
X62047030Y-52563800D01*
G75*
G02*
X62334200Y-52850970I0J-287170D01*
G01*
X62334200Y-53829030D01*
G75*
G02*
X62047030Y-54116200I-287170J0D01*
G01*
X61443970Y-54116200D01*
G75*
G02*
X61156800Y-53829030I0J287170D01*
G01*
G37*
G36*
G01*
X66407350Y-59794200D02*
X65418650Y-59794200D01*
G75*
G02*
X65136800Y-59512350I0J281850D01*
G01*
X65136800Y-58948650D01*
G75*
G02*
X65418650Y-58666800I281850J0D01*
G01*
X66407350Y-58666800D01*
G75*
G02*
X66689200Y-58948650I0J-281850D01*
G01*
X66689200Y-59512350D01*
G75*
G02*
X66407350Y-59794200I-281850J0D01*
G01*
G37*
G36*
G01*
X66407350Y-57919200D02*
X65418650Y-57919200D01*
G75*
G02*
X65136800Y-57637350I0J281850D01*
G01*
X65136800Y-57073650D01*
G75*
G02*
X65418650Y-56791800I281850J0D01*
G01*
X66407350Y-56791800D01*
G75*
G02*
X66689200Y-57073650I0J-281850D01*
G01*
X66689200Y-57637350D01*
G75*
G02*
X66407350Y-57919200I-281850J0D01*
G01*
G37*
G36*
X64231767Y-69118332D02*
G01*
X64205705Y-69073191D01*
X64204547Y-69059959D01*
X64204547Y-67559959D01*
X64222374Y-67510979D01*
X64267515Y-67484917D01*
X64280747Y-67483759D01*
X64780747Y-67483759D01*
X64792501Y-67488037D01*
X64846010Y-67488037D01*
X64865732Y-67490633D01*
X64991811Y-67524415D01*
X65010189Y-67532028D01*
X65123228Y-67597291D01*
X65139010Y-67609400D01*
X65231306Y-67701696D01*
X65243415Y-67717478D01*
X65308678Y-67830517D01*
X65316291Y-67848895D01*
X65350073Y-67974974D01*
X65352669Y-67994696D01*
X65352669Y-68041323D01*
X65355789Y-68046727D01*
X65356947Y-68059959D01*
X65356947Y-68559959D01*
X65352669Y-68571712D01*
X65352669Y-68625222D01*
X65350073Y-68644944D01*
X65316291Y-68771023D01*
X65308678Y-68789401D01*
X65243415Y-68902440D01*
X65231306Y-68918222D01*
X65139010Y-69010518D01*
X65123228Y-69022627D01*
X65010189Y-69087890D01*
X64991811Y-69095503D01*
X64865732Y-69129285D01*
X64846010Y-69131881D01*
X64799383Y-69131881D01*
X64793979Y-69135001D01*
X64780747Y-69136159D01*
X64280747Y-69136159D01*
X64231767Y-69118332D01*
G37*
G36*
X63468993Y-69131881D02*
G01*
X63415484Y-69131881D01*
X63395762Y-69129285D01*
X63269683Y-69095503D01*
X63251305Y-69087890D01*
X63138266Y-69022627D01*
X63122484Y-69010518D01*
X63030188Y-68918222D01*
X63018079Y-68902440D01*
X62952816Y-68789401D01*
X62945203Y-68771023D01*
X62911421Y-68644944D01*
X62908825Y-68625222D01*
X62908825Y-68578595D01*
X62905705Y-68573191D01*
X62904547Y-68559959D01*
X62904547Y-68059959D01*
X62908825Y-68048206D01*
X62908825Y-67994696D01*
X62911421Y-67974974D01*
X62945203Y-67848895D01*
X62952816Y-67830517D01*
X63018079Y-67717478D01*
X63030188Y-67701696D01*
X63122484Y-67609400D01*
X63138266Y-67597291D01*
X63251305Y-67532028D01*
X63269683Y-67524415D01*
X63395762Y-67490633D01*
X63415484Y-67488037D01*
X63462111Y-67488037D01*
X63467515Y-67484917D01*
X63480747Y-67483759D01*
X63980747Y-67483759D01*
X64029727Y-67501586D01*
X64055789Y-67546727D01*
X64056947Y-67559959D01*
X64056947Y-69059959D01*
X64039120Y-69108939D01*
X63993979Y-69135001D01*
X63980747Y-69136159D01*
X63480747Y-69136159D01*
X63468993Y-69131881D01*
G37*
G36*
G01*
X46384800Y-50480100D02*
X46384800Y-50103900D01*
G75*
G02*
X46572900Y-49915800I188100J0D01*
G01*
X48299100Y-49915800D01*
G75*
G02*
X48487200Y-50103900I0J-188100D01*
G01*
X48487200Y-50480100D01*
G75*
G02*
X48299100Y-50668200I-188100J0D01*
G01*
X46572900Y-50668200D01*
G75*
G02*
X46384800Y-50480100I0J188100D01*
G01*
G37*
G36*
G01*
X46384800Y-51750100D02*
X46384800Y-51373900D01*
G75*
G02*
X46572900Y-51185800I188100J0D01*
G01*
X48299100Y-51185800D01*
G75*
G02*
X48487200Y-51373900I0J-188100D01*
G01*
X48487200Y-51750100D01*
G75*
G02*
X48299100Y-51938200I-188100J0D01*
G01*
X46572900Y-51938200D01*
G75*
G02*
X46384800Y-51750100I0J188100D01*
G01*
G37*
G36*
G01*
X46384800Y-53020100D02*
X46384800Y-52643900D01*
G75*
G02*
X46572900Y-52455800I188100J0D01*
G01*
X48299100Y-52455800D01*
G75*
G02*
X48487200Y-52643900I0J-188100D01*
G01*
X48487200Y-53020100D01*
G75*
G02*
X48299100Y-53208200I-188100J0D01*
G01*
X46572900Y-53208200D01*
G75*
G02*
X46384800Y-53020100I0J188100D01*
G01*
G37*
G36*
G01*
X46384800Y-54290100D02*
X46384800Y-53913900D01*
G75*
G02*
X46572900Y-53725800I188100J0D01*
G01*
X48299100Y-53725800D01*
G75*
G02*
X48487200Y-53913900I0J-188100D01*
G01*
X48487200Y-54290100D01*
G75*
G02*
X48299100Y-54478200I-188100J0D01*
G01*
X46572900Y-54478200D01*
G75*
G02*
X46384800Y-54290100I0J188100D01*
G01*
G37*
G36*
G01*
X46384800Y-55560100D02*
X46384800Y-55183900D01*
G75*
G02*
X46572900Y-54995800I188100J0D01*
G01*
X48299100Y-54995800D01*
G75*
G02*
X48487200Y-55183900I0J-188100D01*
G01*
X48487200Y-55560100D01*
G75*
G02*
X48299100Y-55748200I-188100J0D01*
G01*
X46572900Y-55748200D01*
G75*
G02*
X46384800Y-55560100I0J188100D01*
G01*
G37*
G36*
G01*
X46384800Y-56830100D02*
X46384800Y-56453900D01*
G75*
G02*
X46572900Y-56265800I188100J0D01*
G01*
X48299100Y-56265800D01*
G75*
G02*
X48487200Y-56453900I0J-188100D01*
G01*
X48487200Y-56830100D01*
G75*
G02*
X48299100Y-57018200I-188100J0D01*
G01*
X46572900Y-57018200D01*
G75*
G02*
X46384800Y-56830100I0J188100D01*
G01*
G37*
G36*
G01*
X46384800Y-58100100D02*
X46384800Y-57723900D01*
G75*
G02*
X46572900Y-57535800I188100J0D01*
G01*
X48299100Y-57535800D01*
G75*
G02*
X48487200Y-57723900I0J-188100D01*
G01*
X48487200Y-58100100D01*
G75*
G02*
X48299100Y-58288200I-188100J0D01*
G01*
X46572900Y-58288200D01*
G75*
G02*
X46384800Y-58100100I0J188100D01*
G01*
G37*
G36*
G01*
X51334800Y-58100100D02*
X51334800Y-57723900D01*
G75*
G02*
X51522900Y-57535800I188100J0D01*
G01*
X53249100Y-57535800D01*
G75*
G02*
X53437200Y-57723900I0J-188100D01*
G01*
X53437200Y-58100100D01*
G75*
G02*
X53249100Y-58288200I-188100J0D01*
G01*
X51522900Y-58288200D01*
G75*
G02*
X51334800Y-58100100I0J188100D01*
G01*
G37*
G36*
G01*
X51334800Y-56830100D02*
X51334800Y-56453900D01*
G75*
G02*
X51522900Y-56265800I188100J0D01*
G01*
X53249100Y-56265800D01*
G75*
G02*
X53437200Y-56453900I0J-188100D01*
G01*
X53437200Y-56830100D01*
G75*
G02*
X53249100Y-57018200I-188100J0D01*
G01*
X51522900Y-57018200D01*
G75*
G02*
X51334800Y-56830100I0J188100D01*
G01*
G37*
G36*
G01*
X51334800Y-55560100D02*
X51334800Y-55183900D01*
G75*
G02*
X51522900Y-54995800I188100J0D01*
G01*
X53249100Y-54995800D01*
G75*
G02*
X53437200Y-55183900I0J-188100D01*
G01*
X53437200Y-55560100D01*
G75*
G02*
X53249100Y-55748200I-188100J0D01*
G01*
X51522900Y-55748200D01*
G75*
G02*
X51334800Y-55560100I0J188100D01*
G01*
G37*
G36*
G01*
X51334800Y-54290100D02*
X51334800Y-53913900D01*
G75*
G02*
X51522900Y-53725800I188100J0D01*
G01*
X53249100Y-53725800D01*
G75*
G02*
X53437200Y-53913900I0J-188100D01*
G01*
X53437200Y-54290100D01*
G75*
G02*
X53249100Y-54478200I-188100J0D01*
G01*
X51522900Y-54478200D01*
G75*
G02*
X51334800Y-54290100I0J188100D01*
G01*
G37*
G36*
G01*
X51334800Y-53020100D02*
X51334800Y-52643900D01*
G75*
G02*
X51522900Y-52455800I188100J0D01*
G01*
X53249100Y-52455800D01*
G75*
G02*
X53437200Y-52643900I0J-188100D01*
G01*
X53437200Y-53020100D01*
G75*
G02*
X53249100Y-53208200I-188100J0D01*
G01*
X51522900Y-53208200D01*
G75*
G02*
X51334800Y-53020100I0J188100D01*
G01*
G37*
G36*
G01*
X51334800Y-51750100D02*
X51334800Y-51373900D01*
G75*
G02*
X51522900Y-51185800I188100J0D01*
G01*
X53249100Y-51185800D01*
G75*
G02*
X53437200Y-51373900I0J-188100D01*
G01*
X53437200Y-51750100D01*
G75*
G02*
X53249100Y-51938200I-188100J0D01*
G01*
X51522900Y-51938200D01*
G75*
G02*
X51334800Y-51750100I0J188100D01*
G01*
G37*
G36*
G01*
X51334800Y-50480100D02*
X51334800Y-50103900D01*
G75*
G02*
X51522900Y-49915800I188100J0D01*
G01*
X53249100Y-49915800D01*
G75*
G02*
X53437200Y-50103900I0J-188100D01*
G01*
X53437200Y-50480100D01*
G75*
G02*
X53249100Y-50668200I-188100J0D01*
G01*
X51522900Y-50668200D01*
G75*
G02*
X51334800Y-50480100I0J188100D01*
G01*
G37*
G36*
G01*
X53988200Y-37023000D02*
X53988200Y-38923000D01*
G75*
G02*
X53912000Y-38999200I-76200J0D01*
G01*
X52512000Y-38999200D01*
G75*
G02*
X52435800Y-38923000I0J76200D01*
G01*
X52435800Y-37023000D01*
G75*
G02*
X52512000Y-36946800I76200J0D01*
G01*
X53912000Y-36946800D01*
G75*
G02*
X53988200Y-37023000I0J-76200D01*
G01*
G37*
G36*
G01*
X50688200Y-37023000D02*
X50688200Y-38923000D01*
G75*
G02*
X50612000Y-38999200I-76200J0D01*
G01*
X49212000Y-38999200D01*
G75*
G02*
X49135800Y-38923000I0J76200D01*
G01*
X49135800Y-37023000D01*
G75*
G02*
X49212000Y-36946800I76200J0D01*
G01*
X50612000Y-36946800D01*
G75*
G02*
X50688200Y-37023000I0J-76200D01*
G01*
G37*
G36*
G01*
X49135800Y-32192000D02*
X49135800Y-30292000D01*
G75*
G02*
X49212000Y-30215800I76200J0D01*
G01*
X50612000Y-30215800D01*
G75*
G02*
X50688200Y-30292000I0J-76200D01*
G01*
X50688200Y-32192000D01*
G75*
G02*
X50612000Y-32268200I-76200J0D01*
G01*
X49212000Y-32268200D01*
G75*
G02*
X49135800Y-32192000I0J76200D01*
G01*
G37*
G36*
G01*
X52435800Y-32192000D02*
X52435800Y-30292000D01*
G75*
G02*
X52512000Y-30215800I76200J0D01*
G01*
X53912000Y-30215800D01*
G75*
G02*
X53988200Y-30292000I0J-76200D01*
G01*
X53988200Y-32192000D01*
G75*
G02*
X53912000Y-32268200I-76200J0D01*
G01*
X52512000Y-32268200D01*
G75*
G02*
X52435800Y-32192000I0J76200D01*
G01*
G37*
G36*
G01*
X27073800Y-66534350D02*
X27073800Y-65545650D01*
G75*
G02*
X27355650Y-65263800I281850J0D01*
G01*
X27919350Y-65263800D01*
G75*
G02*
X28201200Y-65545650I0J-281850D01*
G01*
X28201200Y-66534350D01*
G75*
G02*
X27919350Y-66816200I-281850J0D01*
G01*
X27355650Y-66816200D01*
G75*
G02*
X27073800Y-66534350I0J281850D01*
G01*
G37*
G36*
G01*
X28948800Y-66534350D02*
X28948800Y-65545650D01*
G75*
G02*
X29230650Y-65263800I281850J0D01*
G01*
X29794350Y-65263800D01*
G75*
G02*
X30076200Y-65545650I0J-281850D01*
G01*
X30076200Y-66534350D01*
G75*
G02*
X29794350Y-66816200I-281850J0D01*
G01*
X29230650Y-66816200D01*
G75*
G02*
X28948800Y-66534350I0J281850D01*
G01*
G37*
G36*
G01*
X41883200Y-50164900D02*
X41883200Y-50541100D01*
G75*
G02*
X41695100Y-50729200I-188100J0D01*
G01*
X40443900Y-50729200D01*
G75*
G02*
X40255800Y-50541100I0J188100D01*
G01*
X40255800Y-50164900D01*
G75*
G02*
X40443900Y-49976800I188100J0D01*
G01*
X41695100Y-49976800D01*
G75*
G02*
X41883200Y-50164900I0J-188100D01*
G01*
G37*
G36*
G01*
X41883200Y-48264900D02*
X41883200Y-48641100D01*
G75*
G02*
X41695100Y-48829200I-188100J0D01*
G01*
X40443900Y-48829200D01*
G75*
G02*
X40255800Y-48641100I0J188100D01*
G01*
X40255800Y-48264900D01*
G75*
G02*
X40443900Y-48076800I188100J0D01*
G01*
X41695100Y-48076800D01*
G75*
G02*
X41883200Y-48264900I0J-188100D01*
G01*
G37*
G36*
G01*
X40008200Y-49214900D02*
X40008200Y-49591100D01*
G75*
G02*
X39820100Y-49779200I-188100J0D01*
G01*
X38568900Y-49779200D01*
G75*
G02*
X38380800Y-49591100I0J188100D01*
G01*
X38380800Y-49214900D01*
G75*
G02*
X38568900Y-49026800I188100J0D01*
G01*
X39820100Y-49026800D01*
G75*
G02*
X40008200Y-49214900I0J-188100D01*
G01*
G37*
D10*
X71882000Y-71882000D03*
G36*
G01*
X67144000Y-41820200D02*
X65444000Y-41820200D01*
G75*
G02*
X65367800Y-41744000I0J76200D01*
G01*
X65367800Y-40044000D01*
G75*
G02*
X65444000Y-39967800I76200J0D01*
G01*
X67144000Y-39967800D01*
G75*
G02*
X67220200Y-40044000I0J-76200D01*
G01*
X67220200Y-41744000D01*
G75*
G02*
X67144000Y-41820200I-76200J0D01*
G01*
G37*
D17*
X68834000Y-40894000D03*
X71374000Y-40894000D03*
G36*
G01*
X53988200Y-33594000D02*
X53988200Y-35494000D01*
G75*
G02*
X53912000Y-35570200I-76200J0D01*
G01*
X52512000Y-35570200D01*
G75*
G02*
X52435800Y-35494000I0J76200D01*
G01*
X52435800Y-33594000D01*
G75*
G02*
X52512000Y-33517800I76200J0D01*
G01*
X53912000Y-33517800D01*
G75*
G02*
X53988200Y-33594000I0J-76200D01*
G01*
G37*
G36*
G01*
X50688200Y-33594000D02*
X50688200Y-35494000D01*
G75*
G02*
X50612000Y-35570200I-76200J0D01*
G01*
X49212000Y-35570200D01*
G75*
G02*
X49135800Y-35494000I0J76200D01*
G01*
X49135800Y-33594000D01*
G75*
G02*
X49212000Y-33517800I76200J0D01*
G01*
X50612000Y-33517800D01*
G75*
G02*
X50688200Y-33594000I0J-76200D01*
G01*
G37*
G36*
G01*
X38503800Y-45193030D02*
X38503800Y-44214970D01*
G75*
G02*
X38790970Y-43927800I287170J0D01*
G01*
X39394030Y-43927800D01*
G75*
G02*
X39681200Y-44214970I0J-287170D01*
G01*
X39681200Y-45193030D01*
G75*
G02*
X39394030Y-45480200I-287170J0D01*
G01*
X38790970Y-45480200D01*
G75*
G02*
X38503800Y-45193030I0J287170D01*
G01*
G37*
G36*
G01*
X40328800Y-45193030D02*
X40328800Y-44214970D01*
G75*
G02*
X40615970Y-43927800I287170J0D01*
G01*
X41219030Y-43927800D01*
G75*
G02*
X41506200Y-44214970I0J-287170D01*
G01*
X41506200Y-45193030D01*
G75*
G02*
X41219030Y-45480200I-287170J0D01*
G01*
X40615970Y-45480200D01*
G75*
G02*
X40328800Y-45193030I0J287170D01*
G01*
G37*
G36*
G01*
X35715800Y-69920634D02*
X35715800Y-68001366D01*
G75*
G02*
X35982366Y-67734800I266566J0D01*
G01*
X37901634Y-67734800D01*
G75*
G02*
X38168200Y-68001366I0J-266566D01*
G01*
X38168200Y-69920634D01*
G75*
G02*
X37901634Y-70187200I-266566J0D01*
G01*
X35982366Y-70187200D01*
G75*
G02*
X35715800Y-69920634I0J266566D01*
G01*
G37*
D11*
X40442000Y-68961000D03*
X43942000Y-68961000D03*
G36*
G01*
X55775800Y-61703030D02*
X55775800Y-60724970D01*
G75*
G02*
X56062970Y-60437800I287170J0D01*
G01*
X56666030Y-60437800D01*
G75*
G02*
X56953200Y-60724970I0J-287170D01*
G01*
X56953200Y-61703030D01*
G75*
G02*
X56666030Y-61990200I-287170J0D01*
G01*
X56062970Y-61990200D01*
G75*
G02*
X55775800Y-61703030I0J287170D01*
G01*
G37*
G36*
G01*
X57600800Y-61703030D02*
X57600800Y-60724970D01*
G75*
G02*
X57887970Y-60437800I287170J0D01*
G01*
X58491030Y-60437800D01*
G75*
G02*
X58778200Y-60724970I0J-287170D01*
G01*
X58778200Y-61703030D01*
G75*
G02*
X58491030Y-61990200I-287170J0D01*
G01*
X57887970Y-61990200D01*
G75*
G02*
X57600800Y-61703030I0J287170D01*
G01*
G37*
G36*
G01*
X56266100Y-46992200D02*
X55239900Y-46992200D01*
G75*
G02*
X54951800Y-46704100I0J288100D01*
G01*
X54951800Y-46127900D01*
G75*
G02*
X55239900Y-45839800I288100J0D01*
G01*
X56266100Y-45839800D01*
G75*
G02*
X56554200Y-46127900I0J-288100D01*
G01*
X56554200Y-46704100D01*
G75*
G02*
X56266100Y-46992200I-288100J0D01*
G01*
G37*
G36*
G01*
X56266100Y-45092200D02*
X55239900Y-45092200D01*
G75*
G02*
X54951800Y-44804100I0J288100D01*
G01*
X54951800Y-44227900D01*
G75*
G02*
X55239900Y-43939800I288100J0D01*
G01*
X56266100Y-43939800D01*
G75*
G02*
X56554200Y-44227900I0J-288100D01*
G01*
X56554200Y-44804100D01*
G75*
G02*
X56266100Y-45092200I-288100J0D01*
G01*
G37*
G36*
X64246767Y-64546332D02*
G01*
X64220705Y-64501191D01*
X64219547Y-64487959D01*
X64219547Y-62987959D01*
X64237374Y-62938979D01*
X64282515Y-62912917D01*
X64295747Y-62911759D01*
X64795747Y-62911759D01*
X64807501Y-62916037D01*
X64861010Y-62916037D01*
X64880732Y-62918633D01*
X65006811Y-62952415D01*
X65025189Y-62960028D01*
X65138228Y-63025291D01*
X65154010Y-63037400D01*
X65246306Y-63129696D01*
X65258415Y-63145478D01*
X65323678Y-63258517D01*
X65331291Y-63276895D01*
X65365073Y-63402974D01*
X65367669Y-63422696D01*
X65367669Y-63469323D01*
X65370789Y-63474727D01*
X65371947Y-63487959D01*
X65371947Y-63987959D01*
X65367669Y-63999712D01*
X65367669Y-64053222D01*
X65365073Y-64072944D01*
X65331291Y-64199023D01*
X65323678Y-64217401D01*
X65258415Y-64330440D01*
X65246306Y-64346222D01*
X65154010Y-64438518D01*
X65138228Y-64450627D01*
X65025189Y-64515890D01*
X65006811Y-64523503D01*
X64880732Y-64557285D01*
X64861010Y-64559881D01*
X64814383Y-64559881D01*
X64808979Y-64563001D01*
X64795747Y-64564159D01*
X64295747Y-64564159D01*
X64246767Y-64546332D01*
G37*
G36*
X63483993Y-64559881D02*
G01*
X63430484Y-64559881D01*
X63410762Y-64557285D01*
X63284683Y-64523503D01*
X63266305Y-64515890D01*
X63153266Y-64450627D01*
X63137484Y-64438518D01*
X63045188Y-64346222D01*
X63033079Y-64330440D01*
X62967816Y-64217401D01*
X62960203Y-64199023D01*
X62926421Y-64072944D01*
X62923825Y-64053222D01*
X62923825Y-64006595D01*
X62920705Y-64001191D01*
X62919547Y-63987959D01*
X62919547Y-63487959D01*
X62923825Y-63476206D01*
X62923825Y-63422696D01*
X62926421Y-63402974D01*
X62960203Y-63276895D01*
X62967816Y-63258517D01*
X63033079Y-63145478D01*
X63045188Y-63129696D01*
X63137484Y-63037400D01*
X63153266Y-63025291D01*
X63266305Y-62960028D01*
X63284683Y-62952415D01*
X63410762Y-62918633D01*
X63430484Y-62916037D01*
X63477111Y-62916037D01*
X63482515Y-62912917D01*
X63495747Y-62911759D01*
X63995747Y-62911759D01*
X64044727Y-62929586D01*
X64070789Y-62974727D01*
X64071947Y-62987959D01*
X64071947Y-64487959D01*
X64054120Y-64536939D01*
X64008979Y-64563001D01*
X63995747Y-64564159D01*
X63495747Y-64564159D01*
X63483993Y-64559881D01*
G37*
G36*
G01*
X47376100Y-46992200D02*
X46349900Y-46992200D01*
G75*
G02*
X46061800Y-46704100I0J288100D01*
G01*
X46061800Y-46127900D01*
G75*
G02*
X46349900Y-45839800I288100J0D01*
G01*
X47376100Y-45839800D01*
G75*
G02*
X47664200Y-46127900I0J-288100D01*
G01*
X47664200Y-46704100D01*
G75*
G02*
X47376100Y-46992200I-288100J0D01*
G01*
G37*
G36*
G01*
X47376100Y-45092200D02*
X46349900Y-45092200D01*
G75*
G02*
X46061800Y-44804100I0J288100D01*
G01*
X46061800Y-44227900D01*
G75*
G02*
X46349900Y-43939800I288100J0D01*
G01*
X47376100Y-43939800D01*
G75*
G02*
X47664200Y-44227900I0J-288100D01*
G01*
X47664200Y-44804100D01*
G75*
G02*
X47376100Y-45092200I-288100J0D01*
G01*
G37*
M02*
