G04 #@! TF.GenerationSoftware,KiCad,Pcbnew,9.0.9-9.0.9~ubuntu24.04.1*
G04 #@! TF.CreationDate,2026-08-23T16:43:13-06:00*
G04 #@! TF.ProjectId,ckt-katoswitch,636b742d-6b61-4746-9f73-77697463682e,rev?*
G04 #@! TF.SameCoordinates,Original*
G04 #@! TF.FileFunction,Copper,L1,Top*
G04 #@! TF.FilePolarity,Positive*
%FSLAX46Y46*%
G04 Gerber Fmt 4.6, Leading zero omitted, Abs format (unit mm)*
G04 Created by KiCad (PCBNEW 9.0.9-9.0.9~ubuntu24.04.1) date 2026-08-23 16:43:13*
%MOMM*%
%LPD*%
G01*
G04 APERTURE LIST*
G04 #@! TA.AperFunction,ComponentPad*
%ADD10C,6.400000*%
G04 #@! TD*
G04 #@! TA.AperFunction,ComponentPad*
%ADD11C,2.300000*%
G04 #@! TD*
G04 #@! TA.AperFunction,SMDPad,CuDef*
%ADD12R,2.000000X0.640000*%
G04 #@! TD*
G04 #@! TA.AperFunction,SMDPad,CuDef*
%ADD13R,1.400000X1.900000*%
G04 #@! TD*
G04 #@! TA.AperFunction,ComponentPad*
%ADD14C,2.500000*%
G04 #@! TD*
G04 #@! TA.AperFunction,SMDPad,CuDef*
%ADD15R,2.660000X0.800000*%
G04 #@! TD*
G04 #@! TA.AperFunction,SMDPad,CuDef*
%ADD16R,2.200000X0.500000*%
G04 #@! TD*
G04 #@! TA.AperFunction,ComponentPad*
%ADD17C,0.630000*%
G04 #@! TD*
G04 #@! TA.AperFunction,SMDPad,CuDef*
%ADD18R,2.950000X4.900000*%
G04 #@! TD*
G04 #@! TA.AperFunction,SMDPad,CuDef*
%ADD19R,0.550000X1.300000*%
G04 #@! TD*
G04 #@! TA.AperFunction,ConnectorPad*
%ADD20C,0.787400*%
G04 #@! TD*
G04 #@! TA.AperFunction,ComponentPad*
%ADD21R,1.700000X1.700000*%
G04 #@! TD*
G04 #@! TA.AperFunction,ComponentPad*
%ADD22C,1.700000*%
G04 #@! TD*
G04 #@! TA.AperFunction,ViaPad*
%ADD23C,0.800000*%
G04 #@! TD*
G04 #@! TA.AperFunction,Conductor*
%ADD24C,1.016000*%
G04 #@! TD*
G04 #@! TA.AperFunction,Conductor*
%ADD25C,0.508000*%
G04 #@! TD*
G04 #@! TA.AperFunction,Conductor*
%ADD26C,0.250000*%
G04 #@! TD*
G04 #@! TA.AperFunction,Conductor*
%ADD27C,0.254000*%
G04 #@! TD*
G04 #@! TA.AperFunction,Conductor*
%ADD28C,0.635000*%
G04 #@! TD*
G04 APERTURE END LIST*
G04 #@! TA.AperFunction,SMDPad,CuDef*
G36*
G01*
X59916000Y-39566000D02*
X59916000Y-38666000D01*
G75*
G02*
X60166000Y-38416000I250000J0D01*
G01*
X60691000Y-38416000D01*
G75*
G02*
X60941000Y-38666000I0J-250000D01*
G01*
X60941000Y-39566000D01*
G75*
G02*
X60691000Y-39816000I-250000J0D01*
G01*
X60166000Y-39816000D01*
G75*
G02*
X59916000Y-39566000I0J250000D01*
G01*
G37*
G04 #@! TD.AperFunction*
G04 #@! TA.AperFunction,SMDPad,CuDef*
G36*
G01*
X61741000Y-39566000D02*
X61741000Y-38666000D01*
G75*
G02*
X61991000Y-38416000I250000J0D01*
G01*
X62516000Y-38416000D01*
G75*
G02*
X62766000Y-38666000I0J-250000D01*
G01*
X62766000Y-39566000D01*
G75*
G02*
X62516000Y-39816000I-250000J0D01*
G01*
X61991000Y-39816000D01*
G75*
G02*
X61741000Y-39566000I0J250000D01*
G01*
G37*
G04 #@! TD.AperFunction*
G04 #@! TA.AperFunction,SMDPad,CuDef*
G36*
G01*
X59371581Y-46183235D02*
X59371581Y-45233235D01*
G75*
G02*
X59621581Y-44983235I250000J0D01*
G01*
X60121581Y-44983235D01*
G75*
G02*
X60371581Y-45233235I0J-250000D01*
G01*
X60371581Y-46183235D01*
G75*
G02*
X60121581Y-46433235I-250000J0D01*
G01*
X59621581Y-46433235D01*
G75*
G02*
X59371581Y-46183235I0J250000D01*
G01*
G37*
G04 #@! TD.AperFunction*
G04 #@! TA.AperFunction,SMDPad,CuDef*
G36*
G01*
X61271581Y-46183235D02*
X61271581Y-45233235D01*
G75*
G02*
X61521581Y-44983235I250000J0D01*
G01*
X62021581Y-44983235D01*
G75*
G02*
X62271581Y-45233235I0J-250000D01*
G01*
X62271581Y-46183235D01*
G75*
G02*
X62021581Y-46433235I-250000J0D01*
G01*
X61521581Y-46433235D01*
G75*
G02*
X61271581Y-46183235I0J250000D01*
G01*
G37*
G04 #@! TD.AperFunction*
D10*
X29718000Y-29718000D03*
G04 #@! TA.AperFunction,ComponentPad*
G36*
G01*
X48563000Y-69860999D02*
X48563000Y-68061001D01*
G75*
G02*
X48813001Y-67811000I250001J0D01*
G01*
X50612999Y-67811000D01*
G75*
G02*
X50863000Y-68061001I0J-250001D01*
G01*
X50863000Y-69860999D01*
G75*
G02*
X50612999Y-70111000I-250001J0D01*
G01*
X48813001Y-70111000D01*
G75*
G02*
X48563000Y-69860999I0J250001D01*
G01*
G37*
G04 #@! TD.AperFunction*
D11*
X53213000Y-68961000D03*
X56713000Y-68961000D03*
D12*
X63221000Y-58674000D03*
X63221000Y-56134000D03*
X56921000Y-56134000D03*
X56921000Y-58674000D03*
D13*
X49912000Y-27940000D03*
X53212000Y-27940000D03*
G04 #@! TA.AperFunction,SMDPad,CuDef*
G36*
G01*
X59396581Y-43745235D02*
X59396581Y-42845235D01*
G75*
G02*
X59646581Y-42595235I250000J0D01*
G01*
X60171581Y-42595235D01*
G75*
G02*
X60421581Y-42845235I0J-250000D01*
G01*
X60421581Y-43745235D01*
G75*
G02*
X60171581Y-43995235I-250000J0D01*
G01*
X59646581Y-43995235D01*
G75*
G02*
X59396581Y-43745235I0J250000D01*
G01*
G37*
G04 #@! TD.AperFunction*
G04 #@! TA.AperFunction,SMDPad,CuDef*
G36*
G01*
X61221581Y-43745235D02*
X61221581Y-42845235D01*
G75*
G02*
X61471581Y-42595235I250000J0D01*
G01*
X61996581Y-42595235D01*
G75*
G02*
X62246581Y-42845235I0J-250000D01*
G01*
X62246581Y-43745235D01*
G75*
G02*
X61996581Y-43995235I-250000J0D01*
G01*
X61471581Y-43995235D01*
G75*
G02*
X61221581Y-43745235I0J250000D01*
G01*
G37*
G04 #@! TD.AperFunction*
G04 #@! TA.AperFunction,ComponentPad*
G36*
G01*
X31870750Y-35717000D02*
X33870750Y-35717000D01*
G75*
G02*
X34120750Y-35967000I0J-250000D01*
G01*
X34120750Y-37967000D01*
G75*
G02*
X33870750Y-38217000I-250000J0D01*
G01*
X31870750Y-38217000D01*
G75*
G02*
X31620750Y-37967000I0J250000D01*
G01*
X31620750Y-35967000D01*
G75*
G02*
X31870750Y-35717000I250000J0D01*
G01*
G37*
G04 #@! TD.AperFunction*
D14*
X32870750Y-41967000D03*
G04 #@! TA.AperFunction,SMDPad,CuDef*
G36*
G01*
X38222000Y-31157000D02*
X38222000Y-30057000D01*
G75*
G02*
X38472000Y-29807000I250000J0D01*
G01*
X41472000Y-29807000D01*
G75*
G02*
X41722000Y-30057000I0J-250000D01*
G01*
X41722000Y-31157000D01*
G75*
G02*
X41472000Y-31407000I-250000J0D01*
G01*
X38472000Y-31407000D01*
G75*
G02*
X38222000Y-31157000I0J250000D01*
G01*
G37*
G04 #@! TD.AperFunction*
G04 #@! TA.AperFunction,SMDPad,CuDef*
G36*
G01*
X43622000Y-31157000D02*
X43622000Y-30057000D01*
G75*
G02*
X43872000Y-29807000I250000J0D01*
G01*
X46872000Y-29807000D01*
G75*
G02*
X47122000Y-30057000I0J-250000D01*
G01*
X47122000Y-31157000D01*
G75*
G02*
X46872000Y-31407000I-250000J0D01*
G01*
X43872000Y-31407000D01*
G75*
G02*
X43622000Y-31157000I0J250000D01*
G01*
G37*
G04 #@! TD.AperFunction*
G04 #@! TA.AperFunction,SMDPad,CuDef*
G36*
X64280747Y-72131959D02*
G01*
X64780747Y-72131959D01*
X64780747Y-72136237D01*
X64846010Y-72136237D01*
X64972089Y-72170019D01*
X65085128Y-72235282D01*
X65177424Y-72327578D01*
X65242687Y-72440617D01*
X65276469Y-72566696D01*
X65276469Y-72631959D01*
X65280747Y-72631959D01*
X65280747Y-73131959D01*
X65276469Y-73131959D01*
X65276469Y-73197222D01*
X65242687Y-73323301D01*
X65177424Y-73436340D01*
X65085128Y-73528636D01*
X64972089Y-73593899D01*
X64846010Y-73627681D01*
X64780747Y-73627681D01*
X64780747Y-73631959D01*
X64280747Y-73631959D01*
X64280747Y-72131959D01*
G37*
G04 #@! TD.AperFunction*
G04 #@! TA.AperFunction,SMDPad,CuDef*
G36*
X63480747Y-73627681D02*
G01*
X63415484Y-73627681D01*
X63289405Y-73593899D01*
X63176366Y-73528636D01*
X63084070Y-73436340D01*
X63018807Y-73323301D01*
X62985025Y-73197222D01*
X62985025Y-73131959D01*
X62980747Y-73131959D01*
X62980747Y-72631959D01*
X62985025Y-72631959D01*
X62985025Y-72566696D01*
X63018807Y-72440617D01*
X63084070Y-72327578D01*
X63176366Y-72235282D01*
X63289405Y-72170019D01*
X63415484Y-72136237D01*
X63480747Y-72136237D01*
X63480747Y-72131959D01*
X63980747Y-72131959D01*
X63980747Y-73631959D01*
X63480747Y-73631959D01*
X63480747Y-73627681D01*
G37*
G04 #@! TD.AperFunction*
D15*
X29044900Y-51549300D03*
X29044900Y-54749700D03*
X29044900Y-56959500D03*
X29044900Y-59169300D03*
X36233100Y-59169300D03*
X36233100Y-56959500D03*
X36233100Y-54749700D03*
X36233100Y-51549300D03*
G04 #@! TA.AperFunction,SMDPad,CuDef*
G36*
G01*
X35969000Y-45898750D02*
X35969000Y-46811250D01*
G75*
G02*
X35725250Y-47055000I-243750J0D01*
G01*
X35237750Y-47055000D01*
G75*
G02*
X34994000Y-46811250I0J243750D01*
G01*
X34994000Y-45898750D01*
G75*
G02*
X35237750Y-45655000I243750J0D01*
G01*
X35725250Y-45655000D01*
G75*
G02*
X35969000Y-45898750I0J-243750D01*
G01*
G37*
G04 #@! TD.AperFunction*
G04 #@! TA.AperFunction,SMDPad,CuDef*
G36*
G01*
X34094000Y-45898750D02*
X34094000Y-46811250D01*
G75*
G02*
X33850250Y-47055000I-243750J0D01*
G01*
X33362750Y-47055000D01*
G75*
G02*
X33119000Y-46811250I0J243750D01*
G01*
X33119000Y-45898750D01*
G75*
G02*
X33362750Y-45655000I243750J0D01*
G01*
X33850250Y-45655000D01*
G75*
G02*
X34094000Y-45898750I0J-243750D01*
G01*
G37*
G04 #@! TD.AperFunction*
D10*
X71882000Y-29718000D03*
X29718000Y-71882000D03*
G04 #@! TA.AperFunction,SMDPad,CuDef*
G36*
G01*
X39571000Y-36289000D02*
X39571000Y-35339000D01*
G75*
G02*
X39821000Y-35089000I250000J0D01*
G01*
X40321000Y-35089000D01*
G75*
G02*
X40571000Y-35339000I0J-250000D01*
G01*
X40571000Y-36289000D01*
G75*
G02*
X40321000Y-36539000I-250000J0D01*
G01*
X39821000Y-36539000D01*
G75*
G02*
X39571000Y-36289000I0J250000D01*
G01*
G37*
G04 #@! TD.AperFunction*
G04 #@! TA.AperFunction,SMDPad,CuDef*
G36*
G01*
X41471000Y-36289000D02*
X41471000Y-35339000D01*
G75*
G02*
X41721000Y-35089000I250000J0D01*
G01*
X42221000Y-35089000D01*
G75*
G02*
X42471000Y-35339000I0J-250000D01*
G01*
X42471000Y-36289000D01*
G75*
G02*
X42221000Y-36539000I-250000J0D01*
G01*
X41721000Y-36539000D01*
G75*
G02*
X41471000Y-36289000I0J250000D01*
G01*
G37*
G04 #@! TD.AperFunction*
G04 #@! TA.AperFunction,SMDPad,CuDef*
G36*
G01*
X59371581Y-48723235D02*
X59371581Y-47773235D01*
G75*
G02*
X59621581Y-47523235I250000J0D01*
G01*
X60121581Y-47523235D01*
G75*
G02*
X60371581Y-47773235I0J-250000D01*
G01*
X60371581Y-48723235D01*
G75*
G02*
X60121581Y-48973235I-250000J0D01*
G01*
X59621581Y-48973235D01*
G75*
G02*
X59371581Y-48723235I0J250000D01*
G01*
G37*
G04 #@! TD.AperFunction*
G04 #@! TA.AperFunction,SMDPad,CuDef*
G36*
G01*
X61271581Y-48723235D02*
X61271581Y-47773235D01*
G75*
G02*
X61521581Y-47523235I250000J0D01*
G01*
X62021581Y-47523235D01*
G75*
G02*
X62271581Y-47773235I0J-250000D01*
G01*
X62271581Y-48723235D01*
G75*
G02*
X62021581Y-48973235I-250000J0D01*
G01*
X61521581Y-48973235D01*
G75*
G02*
X61271581Y-48723235I0J250000D01*
G01*
G37*
G04 #@! TD.AperFunction*
D16*
X45453250Y-42037000D03*
X45453250Y-40767000D03*
X45453250Y-39497000D03*
X45453250Y-38227000D03*
X39703250Y-38227000D03*
X39703250Y-39497000D03*
X39703250Y-40767000D03*
X39703250Y-42037000D03*
D17*
X43228250Y-41432000D03*
X43228250Y-40132000D03*
X43228250Y-38832000D03*
D18*
X42578250Y-40132000D03*
D17*
X41928250Y-41432000D03*
X41928250Y-40132000D03*
X41928250Y-38832000D03*
G04 #@! TA.AperFunction,SMDPad,CuDef*
G36*
G01*
X72164000Y-34849750D02*
X72164000Y-35762250D01*
G75*
G02*
X71920250Y-36006000I-243750J0D01*
G01*
X71432750Y-36006000D01*
G75*
G02*
X71189000Y-35762250I0J243750D01*
G01*
X71189000Y-34849750D01*
G75*
G02*
X71432750Y-34606000I243750J0D01*
G01*
X71920250Y-34606000D01*
G75*
G02*
X72164000Y-34849750I0J-243750D01*
G01*
G37*
G04 #@! TD.AperFunction*
G04 #@! TA.AperFunction,SMDPad,CuDef*
G36*
G01*
X70289000Y-34849750D02*
X70289000Y-35762250D01*
G75*
G02*
X70045250Y-36006000I-243750J0D01*
G01*
X69557750Y-36006000D01*
G75*
G02*
X69314000Y-35762250I0J243750D01*
G01*
X69314000Y-34849750D01*
G75*
G02*
X69557750Y-34606000I243750J0D01*
G01*
X70045250Y-34606000D01*
G75*
G02*
X70289000Y-34849750I0J-243750D01*
G01*
G37*
G04 #@! TD.AperFunction*
D19*
X49808000Y-46481000D03*
G04 #@! TA.AperFunction,SMDPad,CuDef*
G36*
X52233000Y-42531000D02*
G01*
X52233000Y-45131000D01*
X51708000Y-45656000D01*
X51708000Y-47131000D01*
X50908000Y-47131000D01*
X50908000Y-45656000D01*
X50383000Y-45131000D01*
X50383000Y-42531000D01*
X52233000Y-42531000D01*
G37*
G04 #@! TD.AperFunction*
X52808000Y-46481000D03*
G04 #@! TA.AperFunction,ComponentPad*
G36*
G01*
X66107000Y-31551682D02*
X66107000Y-33551682D01*
G75*
G02*
X65857000Y-33801682I-250000J0D01*
G01*
X63857000Y-33801682D01*
G75*
G02*
X63607000Y-33551682I0J250000D01*
G01*
X63607000Y-31551682D01*
G75*
G02*
X63857000Y-31301682I250000J0D01*
G01*
X65857000Y-31301682D01*
G75*
G02*
X66107000Y-31551682I0J-250000D01*
G01*
G37*
G04 #@! TD.AperFunction*
D14*
X59857000Y-32551682D03*
G04 #@! TA.AperFunction,SMDPad,CuDef*
G36*
G01*
X59396581Y-51238235D02*
X59396581Y-50338235D01*
G75*
G02*
X59646581Y-50088235I250000J0D01*
G01*
X60171581Y-50088235D01*
G75*
G02*
X60421581Y-50338235I0J-250000D01*
G01*
X60421581Y-51238235D01*
G75*
G02*
X60171581Y-51488235I-250000J0D01*
G01*
X59646581Y-51488235D01*
G75*
G02*
X59396581Y-51238235I0J250000D01*
G01*
G37*
G04 #@! TD.AperFunction*
G04 #@! TA.AperFunction,SMDPad,CuDef*
G36*
G01*
X61221581Y-51238235D02*
X61221581Y-50338235D01*
G75*
G02*
X61471581Y-50088235I250000J0D01*
G01*
X61996581Y-50088235D01*
G75*
G02*
X62246581Y-50338235I0J-250000D01*
G01*
X62246581Y-51238235D01*
G75*
G02*
X61996581Y-51488235I-250000J0D01*
G01*
X61471581Y-51488235D01*
G75*
G02*
X61221581Y-51238235I0J250000D01*
G01*
G37*
G04 #@! TD.AperFunction*
D20*
X43561000Y-57277000D03*
X42291000Y-57277000D03*
X43561000Y-56007000D03*
X42291000Y-56007000D03*
X43561000Y-54737000D03*
X42291000Y-54737000D03*
G04 #@! TA.AperFunction,ComponentPad*
G36*
G01*
X69659499Y-55069000D02*
X67859501Y-55069000D01*
G75*
G02*
X67609500Y-54818999I0J250001D01*
G01*
X67609500Y-53019001D01*
G75*
G02*
X67859501Y-52769000I250001J0D01*
G01*
X69659499Y-52769000D01*
G75*
G02*
X69909500Y-53019001I0J-250001D01*
G01*
X69909500Y-54818999D01*
G75*
G02*
X69659499Y-55069000I-250001J0D01*
G01*
G37*
G04 #@! TD.AperFunction*
D11*
X68759500Y-50419000D03*
X68759500Y-46919000D03*
G04 #@! TA.AperFunction,SMDPad,CuDef*
G36*
G01*
X32032000Y-45898750D02*
X32032000Y-46811250D01*
G75*
G02*
X31788250Y-47055000I-243750J0D01*
G01*
X31300750Y-47055000D01*
G75*
G02*
X31057000Y-46811250I0J243750D01*
G01*
X31057000Y-45898750D01*
G75*
G02*
X31300750Y-45655000I243750J0D01*
G01*
X31788250Y-45655000D01*
G75*
G02*
X32032000Y-45898750I0J-243750D01*
G01*
G37*
G04 #@! TD.AperFunction*
G04 #@! TA.AperFunction,SMDPad,CuDef*
G36*
G01*
X30157000Y-45898750D02*
X30157000Y-46811250D01*
G75*
G02*
X29913250Y-47055000I-243750J0D01*
G01*
X29425750Y-47055000D01*
G75*
G02*
X29182000Y-46811250I0J243750D01*
G01*
X29182000Y-45898750D01*
G75*
G02*
X29425750Y-45655000I243750J0D01*
G01*
X29913250Y-45655000D01*
G75*
G02*
X30157000Y-45898750I0J-243750D01*
G01*
G37*
G04 #@! TD.AperFunction*
G04 #@! TA.AperFunction,SMDPad,CuDef*
G36*
G01*
X59408000Y-53790000D02*
X59408000Y-52890000D01*
G75*
G02*
X59658000Y-52640000I250000J0D01*
G01*
X60183000Y-52640000D01*
G75*
G02*
X60433000Y-52890000I0J-250000D01*
G01*
X60433000Y-53790000D01*
G75*
G02*
X60183000Y-54040000I-250000J0D01*
G01*
X59658000Y-54040000D01*
G75*
G02*
X59408000Y-53790000I0J250000D01*
G01*
G37*
G04 #@! TD.AperFunction*
G04 #@! TA.AperFunction,SMDPad,CuDef*
G36*
G01*
X61233000Y-53790000D02*
X61233000Y-52890000D01*
G75*
G02*
X61483000Y-52640000I250000J0D01*
G01*
X62008000Y-52640000D01*
G75*
G02*
X62258000Y-52890000I0J-250000D01*
G01*
X62258000Y-53790000D01*
G75*
G02*
X62008000Y-54040000I-250000J0D01*
G01*
X61483000Y-54040000D01*
G75*
G02*
X61233000Y-53790000I0J250000D01*
G01*
G37*
G04 #@! TD.AperFunction*
G04 #@! TA.AperFunction,SMDPad,CuDef*
G36*
G01*
X66369250Y-59718000D02*
X65456750Y-59718000D01*
G75*
G02*
X65213000Y-59474250I0J243750D01*
G01*
X65213000Y-58986750D01*
G75*
G02*
X65456750Y-58743000I243750J0D01*
G01*
X66369250Y-58743000D01*
G75*
G02*
X66613000Y-58986750I0J-243750D01*
G01*
X66613000Y-59474250D01*
G75*
G02*
X66369250Y-59718000I-243750J0D01*
G01*
G37*
G04 #@! TD.AperFunction*
G04 #@! TA.AperFunction,SMDPad,CuDef*
G36*
G01*
X66369250Y-57843000D02*
X65456750Y-57843000D01*
G75*
G02*
X65213000Y-57599250I0J243750D01*
G01*
X65213000Y-57111750D01*
G75*
G02*
X65456750Y-56868000I243750J0D01*
G01*
X66369250Y-56868000D01*
G75*
G02*
X66613000Y-57111750I0J-243750D01*
G01*
X66613000Y-57599250D01*
G75*
G02*
X66369250Y-57843000I-243750J0D01*
G01*
G37*
G04 #@! TD.AperFunction*
G04 #@! TA.AperFunction,SMDPad,CuDef*
G36*
X64280747Y-67559959D02*
G01*
X64780747Y-67559959D01*
X64780747Y-67564237D01*
X64846010Y-67564237D01*
X64972089Y-67598019D01*
X65085128Y-67663282D01*
X65177424Y-67755578D01*
X65242687Y-67868617D01*
X65276469Y-67994696D01*
X65276469Y-68059959D01*
X65280747Y-68059959D01*
X65280747Y-68559959D01*
X65276469Y-68559959D01*
X65276469Y-68625222D01*
X65242687Y-68751301D01*
X65177424Y-68864340D01*
X65085128Y-68956636D01*
X64972089Y-69021899D01*
X64846010Y-69055681D01*
X64780747Y-69055681D01*
X64780747Y-69059959D01*
X64280747Y-69059959D01*
X64280747Y-67559959D01*
G37*
G04 #@! TD.AperFunction*
G04 #@! TA.AperFunction,SMDPad,CuDef*
G36*
X63480747Y-69055681D02*
G01*
X63415484Y-69055681D01*
X63289405Y-69021899D01*
X63176366Y-68956636D01*
X63084070Y-68864340D01*
X63018807Y-68751301D01*
X62985025Y-68625222D01*
X62985025Y-68559959D01*
X62980747Y-68559959D01*
X62980747Y-68059959D01*
X62985025Y-68059959D01*
X62985025Y-67994696D01*
X63018807Y-67868617D01*
X63084070Y-67755578D01*
X63176366Y-67663282D01*
X63289405Y-67598019D01*
X63415484Y-67564237D01*
X63480747Y-67564237D01*
X63480747Y-67559959D01*
X63980747Y-67559959D01*
X63980747Y-69059959D01*
X63480747Y-69059959D01*
X63480747Y-69055681D01*
G37*
G04 #@! TD.AperFunction*
G04 #@! TA.AperFunction,SMDPad,CuDef*
G36*
G01*
X46461000Y-50442000D02*
X46461000Y-50142000D01*
G75*
G02*
X46611000Y-49992000I150000J0D01*
G01*
X48261000Y-49992000D01*
G75*
G02*
X48411000Y-50142000I0J-150000D01*
G01*
X48411000Y-50442000D01*
G75*
G02*
X48261000Y-50592000I-150000J0D01*
G01*
X46611000Y-50592000D01*
G75*
G02*
X46461000Y-50442000I0J150000D01*
G01*
G37*
G04 #@! TD.AperFunction*
G04 #@! TA.AperFunction,SMDPad,CuDef*
G36*
G01*
X46461000Y-51712000D02*
X46461000Y-51412000D01*
G75*
G02*
X46611000Y-51262000I150000J0D01*
G01*
X48261000Y-51262000D01*
G75*
G02*
X48411000Y-51412000I0J-150000D01*
G01*
X48411000Y-51712000D01*
G75*
G02*
X48261000Y-51862000I-150000J0D01*
G01*
X46611000Y-51862000D01*
G75*
G02*
X46461000Y-51712000I0J150000D01*
G01*
G37*
G04 #@! TD.AperFunction*
G04 #@! TA.AperFunction,SMDPad,CuDef*
G36*
G01*
X46461000Y-52982000D02*
X46461000Y-52682000D01*
G75*
G02*
X46611000Y-52532000I150000J0D01*
G01*
X48261000Y-52532000D01*
G75*
G02*
X48411000Y-52682000I0J-150000D01*
G01*
X48411000Y-52982000D01*
G75*
G02*
X48261000Y-53132000I-150000J0D01*
G01*
X46611000Y-53132000D01*
G75*
G02*
X46461000Y-52982000I0J150000D01*
G01*
G37*
G04 #@! TD.AperFunction*
G04 #@! TA.AperFunction,SMDPad,CuDef*
G36*
G01*
X46461000Y-54252000D02*
X46461000Y-53952000D01*
G75*
G02*
X46611000Y-53802000I150000J0D01*
G01*
X48261000Y-53802000D01*
G75*
G02*
X48411000Y-53952000I0J-150000D01*
G01*
X48411000Y-54252000D01*
G75*
G02*
X48261000Y-54402000I-150000J0D01*
G01*
X46611000Y-54402000D01*
G75*
G02*
X46461000Y-54252000I0J150000D01*
G01*
G37*
G04 #@! TD.AperFunction*
G04 #@! TA.AperFunction,SMDPad,CuDef*
G36*
G01*
X46461000Y-55522000D02*
X46461000Y-55222000D01*
G75*
G02*
X46611000Y-55072000I150000J0D01*
G01*
X48261000Y-55072000D01*
G75*
G02*
X48411000Y-55222000I0J-150000D01*
G01*
X48411000Y-55522000D01*
G75*
G02*
X48261000Y-55672000I-150000J0D01*
G01*
X46611000Y-55672000D01*
G75*
G02*
X46461000Y-55522000I0J150000D01*
G01*
G37*
G04 #@! TD.AperFunction*
G04 #@! TA.AperFunction,SMDPad,CuDef*
G36*
G01*
X46461000Y-56792000D02*
X46461000Y-56492000D01*
G75*
G02*
X46611000Y-56342000I150000J0D01*
G01*
X48261000Y-56342000D01*
G75*
G02*
X48411000Y-56492000I0J-150000D01*
G01*
X48411000Y-56792000D01*
G75*
G02*
X48261000Y-56942000I-150000J0D01*
G01*
X46611000Y-56942000D01*
G75*
G02*
X46461000Y-56792000I0J150000D01*
G01*
G37*
G04 #@! TD.AperFunction*
G04 #@! TA.AperFunction,SMDPad,CuDef*
G36*
G01*
X46461000Y-58062000D02*
X46461000Y-57762000D01*
G75*
G02*
X46611000Y-57612000I150000J0D01*
G01*
X48261000Y-57612000D01*
G75*
G02*
X48411000Y-57762000I0J-150000D01*
G01*
X48411000Y-58062000D01*
G75*
G02*
X48261000Y-58212000I-150000J0D01*
G01*
X46611000Y-58212000D01*
G75*
G02*
X46461000Y-58062000I0J150000D01*
G01*
G37*
G04 #@! TD.AperFunction*
G04 #@! TA.AperFunction,SMDPad,CuDef*
G36*
G01*
X51411000Y-58062000D02*
X51411000Y-57762000D01*
G75*
G02*
X51561000Y-57612000I150000J0D01*
G01*
X53211000Y-57612000D01*
G75*
G02*
X53361000Y-57762000I0J-150000D01*
G01*
X53361000Y-58062000D01*
G75*
G02*
X53211000Y-58212000I-150000J0D01*
G01*
X51561000Y-58212000D01*
G75*
G02*
X51411000Y-58062000I0J150000D01*
G01*
G37*
G04 #@! TD.AperFunction*
G04 #@! TA.AperFunction,SMDPad,CuDef*
G36*
G01*
X51411000Y-56792000D02*
X51411000Y-56492000D01*
G75*
G02*
X51561000Y-56342000I150000J0D01*
G01*
X53211000Y-56342000D01*
G75*
G02*
X53361000Y-56492000I0J-150000D01*
G01*
X53361000Y-56792000D01*
G75*
G02*
X53211000Y-56942000I-150000J0D01*
G01*
X51561000Y-56942000D01*
G75*
G02*
X51411000Y-56792000I0J150000D01*
G01*
G37*
G04 #@! TD.AperFunction*
G04 #@! TA.AperFunction,SMDPad,CuDef*
G36*
G01*
X51411000Y-55522000D02*
X51411000Y-55222000D01*
G75*
G02*
X51561000Y-55072000I150000J0D01*
G01*
X53211000Y-55072000D01*
G75*
G02*
X53361000Y-55222000I0J-150000D01*
G01*
X53361000Y-55522000D01*
G75*
G02*
X53211000Y-55672000I-150000J0D01*
G01*
X51561000Y-55672000D01*
G75*
G02*
X51411000Y-55522000I0J150000D01*
G01*
G37*
G04 #@! TD.AperFunction*
G04 #@! TA.AperFunction,SMDPad,CuDef*
G36*
G01*
X51411000Y-54252000D02*
X51411000Y-53952000D01*
G75*
G02*
X51561000Y-53802000I150000J0D01*
G01*
X53211000Y-53802000D01*
G75*
G02*
X53361000Y-53952000I0J-150000D01*
G01*
X53361000Y-54252000D01*
G75*
G02*
X53211000Y-54402000I-150000J0D01*
G01*
X51561000Y-54402000D01*
G75*
G02*
X51411000Y-54252000I0J150000D01*
G01*
G37*
G04 #@! TD.AperFunction*
G04 #@! TA.AperFunction,SMDPad,CuDef*
G36*
G01*
X51411000Y-52982000D02*
X51411000Y-52682000D01*
G75*
G02*
X51561000Y-52532000I150000J0D01*
G01*
X53211000Y-52532000D01*
G75*
G02*
X53361000Y-52682000I0J-150000D01*
G01*
X53361000Y-52982000D01*
G75*
G02*
X53211000Y-53132000I-150000J0D01*
G01*
X51561000Y-53132000D01*
G75*
G02*
X51411000Y-52982000I0J150000D01*
G01*
G37*
G04 #@! TD.AperFunction*
G04 #@! TA.AperFunction,SMDPad,CuDef*
G36*
G01*
X51411000Y-51712000D02*
X51411000Y-51412000D01*
G75*
G02*
X51561000Y-51262000I150000J0D01*
G01*
X53211000Y-51262000D01*
G75*
G02*
X53361000Y-51412000I0J-150000D01*
G01*
X53361000Y-51712000D01*
G75*
G02*
X53211000Y-51862000I-150000J0D01*
G01*
X51561000Y-51862000D01*
G75*
G02*
X51411000Y-51712000I0J150000D01*
G01*
G37*
G04 #@! TD.AperFunction*
G04 #@! TA.AperFunction,SMDPad,CuDef*
G36*
G01*
X51411000Y-50442000D02*
X51411000Y-50142000D01*
G75*
G02*
X51561000Y-49992000I150000J0D01*
G01*
X53211000Y-49992000D01*
G75*
G02*
X53361000Y-50142000I0J-150000D01*
G01*
X53361000Y-50442000D01*
G75*
G02*
X53211000Y-50592000I-150000J0D01*
G01*
X51561000Y-50592000D01*
G75*
G02*
X51411000Y-50442000I0J150000D01*
G01*
G37*
G04 #@! TD.AperFunction*
D13*
X53212000Y-37973000D03*
X49912000Y-37973000D03*
X49912000Y-31242000D03*
X53212000Y-31242000D03*
G04 #@! TA.AperFunction,SMDPad,CuDef*
G36*
G01*
X27150000Y-66496250D02*
X27150000Y-65583750D01*
G75*
G02*
X27393750Y-65340000I243750J0D01*
G01*
X27881250Y-65340000D01*
G75*
G02*
X28125000Y-65583750I0J-243750D01*
G01*
X28125000Y-66496250D01*
G75*
G02*
X27881250Y-66740000I-243750J0D01*
G01*
X27393750Y-66740000D01*
G75*
G02*
X27150000Y-66496250I0J243750D01*
G01*
G37*
G04 #@! TD.AperFunction*
G04 #@! TA.AperFunction,SMDPad,CuDef*
G36*
G01*
X29025000Y-66496250D02*
X29025000Y-65583750D01*
G75*
G02*
X29268750Y-65340000I243750J0D01*
G01*
X29756250Y-65340000D01*
G75*
G02*
X30000000Y-65583750I0J-243750D01*
G01*
X30000000Y-66496250D01*
G75*
G02*
X29756250Y-66740000I-243750J0D01*
G01*
X29268750Y-66740000D01*
G75*
G02*
X29025000Y-66496250I0J243750D01*
G01*
G37*
G04 #@! TD.AperFunction*
G04 #@! TA.AperFunction,SMDPad,CuDef*
G36*
G01*
X41807000Y-50203000D02*
X41807000Y-50503000D01*
G75*
G02*
X41657000Y-50653000I-150000J0D01*
G01*
X40482000Y-50653000D01*
G75*
G02*
X40332000Y-50503000I0J150000D01*
G01*
X40332000Y-50203000D01*
G75*
G02*
X40482000Y-50053000I150000J0D01*
G01*
X41657000Y-50053000D01*
G75*
G02*
X41807000Y-50203000I0J-150000D01*
G01*
G37*
G04 #@! TD.AperFunction*
G04 #@! TA.AperFunction,SMDPad,CuDef*
G36*
G01*
X41807000Y-48303000D02*
X41807000Y-48603000D01*
G75*
G02*
X41657000Y-48753000I-150000J0D01*
G01*
X40482000Y-48753000D01*
G75*
G02*
X40332000Y-48603000I0J150000D01*
G01*
X40332000Y-48303000D01*
G75*
G02*
X40482000Y-48153000I150000J0D01*
G01*
X41657000Y-48153000D01*
G75*
G02*
X41807000Y-48303000I0J-150000D01*
G01*
G37*
G04 #@! TD.AperFunction*
G04 #@! TA.AperFunction,SMDPad,CuDef*
G36*
G01*
X39932000Y-49253000D02*
X39932000Y-49553000D01*
G75*
G02*
X39782000Y-49703000I-150000J0D01*
G01*
X38607000Y-49703000D01*
G75*
G02*
X38457000Y-49553000I0J150000D01*
G01*
X38457000Y-49253000D01*
G75*
G02*
X38607000Y-49103000I150000J0D01*
G01*
X39782000Y-49103000D01*
G75*
G02*
X39932000Y-49253000I0J-150000D01*
G01*
G37*
G04 #@! TD.AperFunction*
D10*
X71882000Y-71882000D03*
D21*
X66294000Y-40894000D03*
D22*
X68834000Y-40894000D03*
X71374000Y-40894000D03*
D13*
X53212000Y-34544000D03*
X49912000Y-34544000D03*
G04 #@! TA.AperFunction,SMDPad,CuDef*
G36*
G01*
X38580000Y-45154000D02*
X38580000Y-44254000D01*
G75*
G02*
X38830000Y-44004000I250000J0D01*
G01*
X39355000Y-44004000D01*
G75*
G02*
X39605000Y-44254000I0J-250000D01*
G01*
X39605000Y-45154000D01*
G75*
G02*
X39355000Y-45404000I-250000J0D01*
G01*
X38830000Y-45404000D01*
G75*
G02*
X38580000Y-45154000I0J250000D01*
G01*
G37*
G04 #@! TD.AperFunction*
G04 #@! TA.AperFunction,SMDPad,CuDef*
G36*
G01*
X40405000Y-45154000D02*
X40405000Y-44254000D01*
G75*
G02*
X40655000Y-44004000I250000J0D01*
G01*
X41180000Y-44004000D01*
G75*
G02*
X41430000Y-44254000I0J-250000D01*
G01*
X41430000Y-45154000D01*
G75*
G02*
X41180000Y-45404000I-250000J0D01*
G01*
X40655000Y-45404000D01*
G75*
G02*
X40405000Y-45154000I0J250000D01*
G01*
G37*
G04 #@! TD.AperFunction*
G04 #@! TA.AperFunction,ComponentPad*
G36*
G01*
X35792000Y-69860999D02*
X35792000Y-68061001D01*
G75*
G02*
X36042001Y-67811000I250001J0D01*
G01*
X37841999Y-67811000D01*
G75*
G02*
X38092000Y-68061001I0J-250001D01*
G01*
X38092000Y-69860999D01*
G75*
G02*
X37841999Y-70111000I-250001J0D01*
G01*
X36042001Y-70111000D01*
G75*
G02*
X35792000Y-69860999I0J250001D01*
G01*
G37*
G04 #@! TD.AperFunction*
D11*
X40442000Y-68961000D03*
X43942000Y-68961000D03*
G04 #@! TA.AperFunction,SMDPad,CuDef*
G36*
G01*
X55852000Y-61664000D02*
X55852000Y-60764000D01*
G75*
G02*
X56102000Y-60514000I250000J0D01*
G01*
X56627000Y-60514000D01*
G75*
G02*
X56877000Y-60764000I0J-250000D01*
G01*
X56877000Y-61664000D01*
G75*
G02*
X56627000Y-61914000I-250000J0D01*
G01*
X56102000Y-61914000D01*
G75*
G02*
X55852000Y-61664000I0J250000D01*
G01*
G37*
G04 #@! TD.AperFunction*
G04 #@! TA.AperFunction,SMDPad,CuDef*
G36*
G01*
X57677000Y-61664000D02*
X57677000Y-60764000D01*
G75*
G02*
X57927000Y-60514000I250000J0D01*
G01*
X58452000Y-60514000D01*
G75*
G02*
X58702000Y-60764000I0J-250000D01*
G01*
X58702000Y-61664000D01*
G75*
G02*
X58452000Y-61914000I-250000J0D01*
G01*
X57927000Y-61914000D01*
G75*
G02*
X57677000Y-61664000I0J250000D01*
G01*
G37*
G04 #@! TD.AperFunction*
G04 #@! TA.AperFunction,SMDPad,CuDef*
G36*
G01*
X56228000Y-46916000D02*
X55278000Y-46916000D01*
G75*
G02*
X55028000Y-46666000I0J250000D01*
G01*
X55028000Y-46166000D01*
G75*
G02*
X55278000Y-45916000I250000J0D01*
G01*
X56228000Y-45916000D01*
G75*
G02*
X56478000Y-46166000I0J-250000D01*
G01*
X56478000Y-46666000D01*
G75*
G02*
X56228000Y-46916000I-250000J0D01*
G01*
G37*
G04 #@! TD.AperFunction*
G04 #@! TA.AperFunction,SMDPad,CuDef*
G36*
G01*
X56228000Y-45016000D02*
X55278000Y-45016000D01*
G75*
G02*
X55028000Y-44766000I0J250000D01*
G01*
X55028000Y-44266000D01*
G75*
G02*
X55278000Y-44016000I250000J0D01*
G01*
X56228000Y-44016000D01*
G75*
G02*
X56478000Y-44266000I0J-250000D01*
G01*
X56478000Y-44766000D01*
G75*
G02*
X56228000Y-45016000I-250000J0D01*
G01*
G37*
G04 #@! TD.AperFunction*
G04 #@! TA.AperFunction,SMDPad,CuDef*
G36*
X64295747Y-62987959D02*
G01*
X64795747Y-62987959D01*
X64795747Y-62992237D01*
X64861010Y-62992237D01*
X64987089Y-63026019D01*
X65100128Y-63091282D01*
X65192424Y-63183578D01*
X65257687Y-63296617D01*
X65291469Y-63422696D01*
X65291469Y-63487959D01*
X65295747Y-63487959D01*
X65295747Y-63987959D01*
X65291469Y-63987959D01*
X65291469Y-64053222D01*
X65257687Y-64179301D01*
X65192424Y-64292340D01*
X65100128Y-64384636D01*
X64987089Y-64449899D01*
X64861010Y-64483681D01*
X64795747Y-64483681D01*
X64795747Y-64487959D01*
X64295747Y-64487959D01*
X64295747Y-62987959D01*
G37*
G04 #@! TD.AperFunction*
G04 #@! TA.AperFunction,SMDPad,CuDef*
G36*
X63495747Y-64483681D02*
G01*
X63430484Y-64483681D01*
X63304405Y-64449899D01*
X63191366Y-64384636D01*
X63099070Y-64292340D01*
X63033807Y-64179301D01*
X63000025Y-64053222D01*
X63000025Y-63987959D01*
X62995747Y-63987959D01*
X62995747Y-63487959D01*
X63000025Y-63487959D01*
X63000025Y-63422696D01*
X63033807Y-63296617D01*
X63099070Y-63183578D01*
X63191366Y-63091282D01*
X63304405Y-63026019D01*
X63430484Y-62992237D01*
X63495747Y-62992237D01*
X63495747Y-62987959D01*
X63995747Y-62987959D01*
X63995747Y-64487959D01*
X63495747Y-64487959D01*
X63495747Y-64483681D01*
G37*
G04 #@! TD.AperFunction*
G04 #@! TA.AperFunction,SMDPad,CuDef*
G36*
G01*
X47338000Y-46916000D02*
X46388000Y-46916000D01*
G75*
G02*
X46138000Y-46666000I0J250000D01*
G01*
X46138000Y-46166000D01*
G75*
G02*
X46388000Y-45916000I250000J0D01*
G01*
X47338000Y-45916000D01*
G75*
G02*
X47588000Y-46166000I0J-250000D01*
G01*
X47588000Y-46666000D01*
G75*
G02*
X47338000Y-46916000I-250000J0D01*
G01*
G37*
G04 #@! TD.AperFunction*
G04 #@! TA.AperFunction,SMDPad,CuDef*
G36*
G01*
X47338000Y-45016000D02*
X46388000Y-45016000D01*
G75*
G02*
X46138000Y-44766000I0J250000D01*
G01*
X46138000Y-44266000D01*
G75*
G02*
X46388000Y-44016000I250000J0D01*
G01*
X47338000Y-44016000D01*
G75*
G02*
X47588000Y-44266000I0J-250000D01*
G01*
X47588000Y-44766000D01*
G75*
G02*
X47338000Y-45016000I-250000J0D01*
G01*
G37*
G04 #@! TD.AperFunction*
D23*
X64770000Y-71501000D03*
X45333787Y-32128633D03*
X39497000Y-52959000D03*
X56769000Y-55118000D03*
X43307000Y-35433000D03*
X53086000Y-43815000D03*
X49530000Y-42672000D03*
X53086000Y-42672000D03*
X45333787Y-33144633D03*
X46736000Y-32131000D03*
X43307000Y-36576000D03*
X49530000Y-43815000D03*
X44770000Y-48453000D03*
X44069000Y-32131000D03*
X43815000Y-48453000D03*
X44069000Y-33147000D03*
X48387000Y-35433000D03*
X42042213Y-34292367D03*
X46736000Y-33147000D03*
X40767000Y-54229000D03*
X64780747Y-66802000D03*
X49530000Y-44831000D03*
X53086000Y-44831000D03*
X48387000Y-33909000D03*
X42926000Y-48453000D03*
X40132000Y-53594000D03*
X27178000Y-64262000D03*
X47371000Y-38227000D03*
X44831000Y-46481000D03*
X45593000Y-51054000D03*
X47371000Y-40767000D03*
X47371000Y-39497000D03*
X44831000Y-49911000D03*
D24*
X57458000Y-43844256D02*
X57458000Y-41202000D01*
X51689000Y-39516000D02*
X51689000Y-31750000D01*
X57440000Y-43862256D02*
X57458000Y-43844256D01*
X53062000Y-46481000D02*
X56128744Y-46481000D01*
X52178000Y-40005000D02*
X51689000Y-39516000D01*
X56128744Y-46481000D02*
X57440000Y-45169744D01*
X57440000Y-45169744D02*
X57440000Y-43862256D01*
X56261000Y-40005000D02*
X52178000Y-40005000D01*
X57458000Y-41202000D02*
X56261000Y-40005000D01*
D25*
X65330500Y-46990000D02*
X68759500Y-50419000D01*
X52451000Y-50227000D02*
X52386000Y-50292000D01*
D26*
X27637500Y-64721500D02*
X27178000Y-64262000D01*
D25*
X40132000Y-53594000D02*
X39497000Y-52959000D01*
D24*
X42578250Y-41278000D02*
X42578250Y-40132000D01*
X45453250Y-42037000D02*
X43337250Y-42037000D01*
X71374000Y-39116000D02*
X71676500Y-38813500D01*
D25*
X61771581Y-46990000D02*
X61771581Y-48248235D01*
D24*
X43815000Y-48453000D02*
X44770000Y-48453000D01*
D25*
X41275000Y-54737000D02*
X40767000Y-54229000D01*
X42291000Y-54737000D02*
X41275000Y-54737000D01*
X61771581Y-46990000D02*
X65330500Y-46990000D01*
D24*
X43337250Y-42037000D02*
X42578250Y-41278000D01*
X64780747Y-66802000D02*
X64780747Y-63752959D01*
X64780747Y-63752959D02*
X64795747Y-63737959D01*
D25*
X56769000Y-55118000D02*
X57150000Y-55499000D01*
X61771581Y-45708235D02*
X61771581Y-46990000D01*
D24*
X51308000Y-48006000D02*
X51308000Y-46393500D01*
D25*
X57150000Y-55499000D02*
X57150000Y-56134000D01*
D24*
X71374000Y-40894000D02*
X71374000Y-39116000D01*
X64780747Y-72881959D02*
X64780747Y-66802000D01*
X42926000Y-48453000D02*
X43815000Y-48453000D01*
D25*
X40767000Y-54229000D02*
X40132000Y-53594000D01*
D24*
X41069500Y-48453000D02*
X42926000Y-48453000D01*
X71676500Y-38813500D02*
X71676500Y-35306000D01*
D25*
X52451000Y-49149000D02*
X52451000Y-50227000D01*
D24*
X39703250Y-40767000D02*
X41943250Y-40767000D01*
X41943250Y-40767000D02*
X42578250Y-40132000D01*
D26*
X27637500Y-66040000D02*
X27637500Y-64721500D01*
D24*
X52451000Y-49149000D02*
X51308000Y-48006000D01*
X58093000Y-47825000D02*
X58093000Y-46644132D01*
X58674000Y-44819072D02*
X58674000Y-42291000D01*
X47625000Y-46481000D02*
X49808000Y-46481000D01*
X68072000Y-39116000D02*
X62253500Y-39116000D01*
X47436000Y-46670000D02*
X47625000Y-46481000D01*
X47436000Y-50292000D02*
X47436000Y-46670000D01*
X68834000Y-40894000D02*
X68834000Y-39878000D01*
X29044900Y-51549300D02*
X32905700Y-51549300D01*
X54991000Y-50927000D02*
X58093000Y-47825000D01*
D25*
X38100000Y-53086000D02*
X34442400Y-53086000D01*
D24*
X37974000Y-46481000D02*
X47625000Y-46481000D01*
X58663581Y-46073551D02*
X58663581Y-44829491D01*
X53975000Y-50927000D02*
X54991000Y-50927000D01*
X61087000Y-41275000D02*
X62253500Y-40108500D01*
D25*
X42291000Y-57277000D02*
X38100000Y-53086000D01*
D27*
X45453250Y-38227000D02*
X47371000Y-38227000D01*
D24*
X59690000Y-41275000D02*
X61087000Y-41275000D01*
X58674000Y-42291000D02*
X59690000Y-41275000D01*
X49784000Y-50927000D02*
X50800000Y-50927000D01*
X62253500Y-40108500D02*
X62253500Y-39116000D01*
D25*
X34442400Y-53086000D02*
X32905700Y-51549300D01*
D24*
X68834000Y-39878000D02*
X68072000Y-39116000D01*
D27*
X53975000Y-50927000D02*
X50800000Y-50927000D01*
D24*
X47436000Y-50292000D02*
X49149000Y-50292000D01*
X32905700Y-51549300D02*
X37974000Y-46481000D01*
X58093000Y-46644132D02*
X58663581Y-46073551D01*
X58663581Y-44829491D02*
X58674000Y-44819072D01*
X49149000Y-50292000D02*
X49784000Y-50927000D01*
X53212000Y-32639000D02*
X53212000Y-34544000D01*
X53299318Y-32551682D02*
X53212000Y-32639000D01*
X53212000Y-31242000D02*
X53212000Y-32639000D01*
X59857000Y-32551682D02*
X53299318Y-32551682D01*
X53212000Y-37973000D02*
X56260000Y-34925000D01*
X62531318Y-30226000D02*
X64857000Y-32551682D01*
X56260000Y-34925000D02*
X62483682Y-34925000D01*
X53212000Y-27940000D02*
X55498000Y-30226000D01*
X62483682Y-34925000D02*
X64857000Y-32551682D01*
X55498000Y-30226000D02*
X62531318Y-30226000D01*
D27*
X35481500Y-47386000D02*
X35481500Y-46355000D01*
D24*
X34464375Y-38560625D02*
X32870750Y-36967000D01*
D27*
X33655000Y-39370000D02*
X34464375Y-38560625D01*
X29669500Y-41069500D02*
X31369000Y-39370000D01*
X31369000Y-39370000D02*
X33655000Y-39370000D01*
D24*
X39703250Y-39497000D02*
X35400750Y-39497000D01*
D27*
X29669500Y-46355000D02*
X29669500Y-41069500D01*
X29669500Y-46355000D02*
X29669500Y-47449500D01*
D24*
X35400750Y-39497000D02*
X34464375Y-38560625D01*
D27*
X34988500Y-47879000D02*
X35481500Y-47386000D01*
X30099000Y-47879000D02*
X34988500Y-47879000D01*
X29669500Y-47449500D02*
X30099000Y-47879000D01*
X34163000Y-44704000D02*
X33606500Y-45260500D01*
X39092500Y-44704000D02*
X34163000Y-44704000D01*
X31544500Y-46355000D02*
X33606500Y-46355000D01*
X33606500Y-45260500D02*
X33606500Y-46355000D01*
X69801500Y-35306000D02*
X68707000Y-35306000D01*
X68707000Y-35306000D02*
X66040000Y-37973000D01*
X61571500Y-37973000D02*
X60428500Y-39116000D01*
X66040000Y-37973000D02*
X61571500Y-37973000D01*
D25*
X59920500Y-57888500D02*
X61468000Y-59436000D01*
X61468000Y-59436000D02*
X63221000Y-59436000D01*
X63221000Y-59436000D02*
X65834500Y-59436000D01*
X59920500Y-53340000D02*
X59920500Y-57888500D01*
D26*
X63221000Y-58674000D02*
X63221000Y-59436000D01*
D25*
X65834500Y-59436000D02*
X65913000Y-59357500D01*
X69850000Y-56896000D02*
X70612000Y-56134000D01*
X63983000Y-56896000D02*
X69850000Y-56896000D01*
D28*
X68759500Y-46919000D02*
X65147500Y-43307000D01*
D25*
X70612000Y-56134000D02*
X70612000Y-48771500D01*
X70612000Y-48771500D02*
X68759500Y-46919000D01*
D28*
X65147500Y-43307000D02*
X62253500Y-43307000D01*
D25*
X63221000Y-56134000D02*
X63983000Y-56896000D01*
D24*
X32940750Y-42037000D02*
X32870750Y-41967000D01*
X39703250Y-42037000D02*
X32940750Y-42037000D01*
D27*
X39703250Y-42624250D02*
X39703250Y-42037000D01*
X40917500Y-44704000D02*
X40917500Y-43838500D01*
X40917500Y-43838500D02*
X39703250Y-42624250D01*
X43561000Y-54737000D02*
X49657000Y-54737000D01*
X49657000Y-54737000D02*
X50292000Y-55372000D01*
X50292000Y-55372000D02*
X52386000Y-55372000D01*
D24*
X36233100Y-61506100D02*
X36233100Y-59169300D01*
X41275000Y-63246000D02*
X37973000Y-63246000D01*
X46990000Y-68961000D02*
X41275000Y-63246000D01*
X37973000Y-63246000D02*
X36233100Y-61506100D01*
X46990000Y-68961000D02*
X49713000Y-68961000D01*
X40767000Y-60198000D02*
X40132000Y-59563000D01*
X40132000Y-56896000D02*
X37985700Y-54749700D01*
X40132000Y-59563000D02*
X40132000Y-56896000D01*
X52776000Y-65024000D02*
X48133000Y-65024000D01*
X56713000Y-68961000D02*
X52776000Y-65024000D01*
X37985700Y-54749700D02*
X36233100Y-54749700D01*
X43307000Y-60198000D02*
X40767000Y-60198000D01*
X48133000Y-65024000D02*
X43307000Y-60198000D01*
X51689000Y-66675000D02*
X47180500Y-66675000D01*
X42227500Y-61722000D02*
X39497000Y-61722000D01*
X53213000Y-68961000D02*
X53213000Y-68199000D01*
X37465000Y-56959500D02*
X36233100Y-56959500D01*
X38481000Y-57975500D02*
X37465000Y-56959500D01*
X53213000Y-68199000D02*
X51689000Y-66675000D01*
X47180500Y-66675000D02*
X42227500Y-61722000D01*
X39497000Y-61722000D02*
X38481000Y-60706000D01*
X38481000Y-60706000D02*
X38481000Y-57975500D01*
X31496000Y-57912000D02*
X31496000Y-61722000D01*
X39243000Y-66548000D02*
X40442000Y-67747000D01*
X29044900Y-56959500D02*
X30543500Y-56959500D01*
X40442000Y-67747000D02*
X40442000Y-68961000D01*
X30543500Y-56959500D02*
X31496000Y-57912000D01*
X36322000Y-66548000D02*
X39243000Y-66548000D01*
X31496000Y-61722000D02*
X36322000Y-66548000D01*
X36195000Y-68961000D02*
X29044900Y-61810900D01*
X29044900Y-61810900D02*
X29044900Y-59169300D01*
X36942000Y-68961000D02*
X36195000Y-68961000D01*
X29044900Y-54749700D02*
X31000700Y-54749700D01*
X31000700Y-54749700D02*
X33274000Y-57023000D01*
X37147500Y-64897000D02*
X39878000Y-64897000D01*
X39878000Y-64897000D02*
X43942000Y-68961000D01*
X33274000Y-61023500D02*
X37147500Y-64897000D01*
X33274000Y-57023000D02*
X33274000Y-61023500D01*
D25*
X70231000Y-58293000D02*
X66929000Y-58293000D01*
X61501000Y-57658000D02*
X64262000Y-57658000D01*
X71755000Y-46355000D02*
X71755000Y-56769000D01*
X61745500Y-53340000D02*
X61745500Y-54840500D01*
D27*
X66929000Y-58293000D02*
X64897000Y-58293000D01*
D25*
X61745500Y-53340000D02*
X61745500Y-50799654D01*
X61745500Y-54840500D02*
X60952406Y-55633594D01*
X64262000Y-57658000D02*
X64897000Y-58293000D01*
X65628735Y-50788235D02*
X68759500Y-53919000D01*
X60952406Y-55633594D02*
X60952406Y-57109406D01*
X66294000Y-40894000D02*
X71755000Y-46355000D01*
X71755000Y-56769000D02*
X70231000Y-58293000D01*
X61745500Y-50799654D02*
X61734081Y-50788235D01*
X60952406Y-57109406D02*
X61501000Y-57658000D01*
X61734081Y-50788235D02*
X65628735Y-50788235D01*
D24*
X36233100Y-51549300D02*
X36233100Y-50761900D01*
X36233100Y-50761900D02*
X37592000Y-49403000D01*
X37592000Y-49403000D02*
X39194500Y-49403000D01*
D26*
X66548000Y-74549000D02*
X67056000Y-74041000D01*
X67056000Y-74041000D02*
X67056000Y-61976000D01*
X66294000Y-61214000D02*
X58189500Y-61214000D01*
X67056000Y-61976000D02*
X66294000Y-61214000D01*
X29512500Y-66040000D02*
X30988000Y-66040000D01*
X36322000Y-71374000D02*
X58420000Y-71374000D01*
X58420000Y-71374000D02*
X61595000Y-74549000D01*
X30988000Y-66040000D02*
X36322000Y-71374000D01*
X61595000Y-74549000D02*
X66548000Y-74549000D01*
D27*
X45593000Y-51181000D02*
X45974000Y-51562000D01*
X45974000Y-51562000D02*
X47436000Y-51562000D01*
X45593000Y-51054000D02*
X45593000Y-51181000D01*
X45453250Y-40767000D02*
X47371000Y-40767000D01*
X45453250Y-39497000D02*
X47371000Y-39497000D01*
X44831000Y-51562000D02*
X44831000Y-49911000D01*
X46101000Y-52832000D02*
X44831000Y-51562000D01*
X47436000Y-52832000D02*
X46101000Y-52832000D01*
X58801000Y-57277000D02*
X57404000Y-58674000D01*
X56595316Y-54102000D02*
X57190158Y-53507158D01*
X57190158Y-53507158D02*
X59909081Y-50788235D01*
X59871581Y-48248235D02*
X59871581Y-50750735D01*
X54864000Y-54102000D02*
X56595316Y-54102000D01*
X57190158Y-53507158D02*
X58801000Y-55118000D01*
X52386000Y-54102000D02*
X54864000Y-54102000D01*
X57404000Y-58674000D02*
X56921000Y-58674000D01*
X59871581Y-50750735D02*
X59909081Y-50788235D01*
X58801000Y-55118000D02*
X58801000Y-57277000D01*
X58928000Y-46990000D02*
X59909081Y-46008919D01*
X58928000Y-50038000D02*
X58928000Y-46990000D01*
X56134000Y-52832000D02*
X58928000Y-50038000D01*
X52386000Y-52832000D02*
X56134000Y-52832000D01*
X59909081Y-46008919D02*
X59909081Y-43295235D01*
D26*
X62495788Y-62738000D02*
X63495747Y-63737959D01*
X52386000Y-57912000D02*
X52386000Y-61657000D01*
X52386000Y-61657000D02*
X53467000Y-62738000D01*
D25*
X63495747Y-63821753D02*
X63495747Y-63737959D01*
D26*
X53467000Y-62738000D02*
X62495788Y-62738000D01*
X63480747Y-66274747D02*
X60452000Y-63246000D01*
X63480747Y-68309959D02*
X63480747Y-66274747D01*
X49150396Y-63246000D02*
X47436000Y-61531604D01*
X60452000Y-63246000D02*
X49150396Y-63246000D01*
X47436000Y-61531604D02*
X47436000Y-57912000D01*
X45466000Y-60198000D02*
X49022000Y-63754000D01*
X45974000Y-56642000D02*
X45466000Y-57150000D01*
X62230000Y-66040000D02*
X62230000Y-71631212D01*
X45466000Y-57150000D02*
X45466000Y-60198000D01*
X47436000Y-56642000D02*
X45974000Y-56642000D01*
X59944000Y-63754000D02*
X62230000Y-66040000D01*
X49022000Y-63754000D02*
X59944000Y-63754000D01*
X62230000Y-71631212D02*
X63480747Y-72881959D01*
D27*
X54991000Y-61214000D02*
X56364500Y-61214000D01*
X41130500Y-50292000D02*
X41069500Y-50353000D01*
X47436000Y-54102000D02*
X50732264Y-54102000D01*
X54610000Y-60833000D02*
X54991000Y-61214000D01*
X46164500Y-54102000D02*
X42354500Y-50292000D01*
X42354500Y-50292000D02*
X41130500Y-50292000D01*
X50732264Y-54102000D02*
X51375264Y-54745000D01*
X54610000Y-55372000D02*
X54610000Y-60833000D01*
X53983000Y-54745000D02*
X54610000Y-55372000D01*
X51375264Y-54745000D02*
X53983000Y-54745000D01*
X47436000Y-54102000D02*
X46164500Y-54102000D01*
G04 #@! TA.AperFunction,Conductor*
G36*
X52140039Y-26816685D02*
G01*
X52185794Y-26869489D01*
X52197000Y-26921000D01*
X52197000Y-32642000D01*
X52177315Y-32709039D01*
X52124511Y-32754794D01*
X52073000Y-32766000D01*
X48638000Y-32766000D01*
X48570961Y-32746315D01*
X48525206Y-32693511D01*
X48514000Y-32642000D01*
X48514000Y-29464000D01*
X42418000Y-29464000D01*
X42418000Y-31499000D01*
X42398315Y-31566039D01*
X42345511Y-31611794D01*
X42294000Y-31623000D01*
X40894000Y-31623000D01*
X40894000Y-37499462D01*
X40874315Y-37566501D01*
X40873102Y-37568353D01*
X40863516Y-37582699D01*
X40863514Y-37582703D01*
X40848750Y-37656928D01*
X40848750Y-38611000D01*
X40829065Y-38678039D01*
X40776261Y-38723794D01*
X40724750Y-38735000D01*
X39789518Y-38735000D01*
X39779340Y-38734500D01*
X39778350Y-38734500D01*
X35767949Y-38734500D01*
X35700910Y-38714815D01*
X35680268Y-38698181D01*
X34950440Y-37968352D01*
X34707319Y-37725231D01*
X34673834Y-37663908D01*
X34671000Y-37637550D01*
X34671000Y-26921000D01*
X34690685Y-26853961D01*
X34743489Y-26808206D01*
X34795000Y-26797000D01*
X52073000Y-26797000D01*
X52140039Y-26816685D01*
G37*
G04 #@! TD.AperFunction*
G04 #@! TA.AperFunction,Conductor*
G36*
X48203039Y-29737685D02*
G01*
X48248794Y-29790489D01*
X48260000Y-29842000D01*
X48260000Y-33147000D01*
X50802500Y-33147000D01*
X50869539Y-33166685D01*
X50915294Y-33219489D01*
X50926500Y-33271000D01*
X50926500Y-38989000D01*
X48133000Y-38989000D01*
X48133000Y-37465000D01*
X44069000Y-37465000D01*
X44069000Y-38865000D01*
X44049315Y-38932039D01*
X43996511Y-38977794D01*
X43945000Y-38989000D01*
X41272000Y-38989000D01*
X41204961Y-38969315D01*
X41159206Y-38916511D01*
X41148000Y-38865000D01*
X41148000Y-32001000D01*
X41167685Y-31933961D01*
X41220489Y-31888206D01*
X41272000Y-31877000D01*
X42672000Y-31877000D01*
X42672000Y-29842000D01*
X42691685Y-29774961D01*
X42744489Y-29729206D01*
X42796000Y-29718000D01*
X48136000Y-29718000D01*
X48203039Y-29737685D01*
G37*
G04 #@! TD.AperFunction*
G04 #@! TA.AperFunction,Conductor*
G36*
X50926500Y-39591100D02*
G01*
X50926500Y-39591102D01*
X50926499Y-39591102D01*
X50955801Y-39738407D01*
X50955803Y-39738413D01*
X51013281Y-39877177D01*
X51096730Y-40002069D01*
X51691928Y-40597267D01*
X51691935Y-40597273D01*
X51816819Y-40680717D01*
X51816818Y-40680717D01*
X51857462Y-40697552D01*
X51955587Y-40738197D01*
X51955591Y-40738197D01*
X51955592Y-40738198D01*
X52102897Y-40767500D01*
X52102900Y-40767500D01*
X55893800Y-40767500D01*
X55960839Y-40787185D01*
X55981481Y-40803819D01*
X56659181Y-41481519D01*
X56692666Y-41542842D01*
X56695500Y-41569200D01*
X56695500Y-43684453D01*
X56693117Y-43708645D01*
X56677500Y-43787153D01*
X56677500Y-44802544D01*
X56657815Y-44869583D01*
X56641181Y-44890225D01*
X55974725Y-45556681D01*
X55913402Y-45590166D01*
X55887044Y-45593000D01*
X53203233Y-45593000D01*
X53179042Y-45590617D01*
X53108069Y-45576500D01*
X52507935Y-45576500D01*
X52451143Y-45587796D01*
X52436956Y-45590618D01*
X52412769Y-45593000D01*
X50203233Y-45593000D01*
X50179042Y-45590617D01*
X50108069Y-45576500D01*
X49507935Y-45576500D01*
X49451143Y-45587796D01*
X49436956Y-45590618D01*
X49412769Y-45593000D01*
X48641000Y-45593000D01*
X48641000Y-41402000D01*
X48133000Y-41402000D01*
X48133000Y-38989000D01*
X50926500Y-38989000D01*
X50926500Y-39591100D01*
G37*
G04 #@! TD.AperFunction*
G04 #@! TA.AperFunction,Conductor*
G36*
X47220482Y-41404382D02*
G01*
X47245261Y-41409311D01*
X47306534Y-41421500D01*
X47306537Y-41421500D01*
X47435465Y-41421500D01*
X47489026Y-41410845D01*
X47521517Y-41404382D01*
X47545707Y-41402000D01*
X48133000Y-41402000D01*
X48641000Y-41402000D01*
X48641000Y-45593000D01*
X48133000Y-45593000D01*
X41729287Y-45593000D01*
X41662248Y-45573315D01*
X41616493Y-45520511D01*
X41606549Y-45451353D01*
X41624902Y-45407040D01*
X41623091Y-45406051D01*
X41627334Y-45398276D01*
X41627342Y-45398267D01*
X41678040Y-45262342D01*
X41680800Y-45236664D01*
X41684499Y-45202271D01*
X41684499Y-45202264D01*
X41684500Y-45202255D01*
X41684499Y-44205746D01*
X41678040Y-44145658D01*
X41627342Y-44009733D01*
X41583707Y-43951443D01*
X41540404Y-43893595D01*
X41461209Y-43834312D01*
X41424267Y-43806658D01*
X41394209Y-43795446D01*
X41350457Y-43779127D01*
X41294525Y-43737255D01*
X41290251Y-43731174D01*
X41279211Y-43714420D01*
X41273002Y-43691247D01*
X41222776Y-43604253D01*
X41175397Y-43556874D01*
X41168458Y-43546343D01*
X41161775Y-43524510D01*
X41150834Y-43504473D01*
X41148230Y-43480260D01*
X41148008Y-43479533D01*
X41148112Y-43479161D01*
X41148000Y-43478115D01*
X41148000Y-41526000D01*
X41167685Y-41458961D01*
X41220489Y-41413206D01*
X41272000Y-41402000D01*
X47196293Y-41402000D01*
X47220482Y-41404382D01*
G37*
G04 #@! TD.AperFunction*
M02*
